<?xml version="1.0" standalone="no"?>
<!DOCTYPE svg PUBLIC "-//W3C//DTD SVG 1.1//EN" "http://www.w3.org/Graphics/SVG/1.1/DTD/svg11.dtd" >
<svg>
<metadata>
Created by FontForge 20110222 at Mon Apr 21 23:07:11 2014
 By Orthosie Webhosting
Copyright (c) 2009 by Summitsoft Corporation. All rights reserved. Find more fonts at www.summitsoftcorp.com or www.macwareinc.com.
</metadata>
<defs>
<font id="DunkirkRegular" horiz-adv-x="511" >
  <font-face 
    font-family="DunkirkRegular"
    font-weight="400"
    font-stretch="normal"
    units-per-em="1000"
    panose-1="2 0 5 6 0 0 0 2 0 4"
    ascent="800"
    descent="-200"
    x-height="444"
    cap-height="680"
    bbox="-240.471 -285 1083 898.158"
    underline-thickness="50"
    underline-position="-50"
    unicode-range="U+0020-20AC"
  />
<missing-glyph horiz-adv-x="300" 
 />
    <glyph glyph-name=".notdef" horiz-adv-x="300" 
 />
    <glyph glyph-name=".null" horiz-adv-x="0" 
 />
    <glyph glyph-name="nonmarkingreturn" horiz-adv-x="333" 
 />
    <glyph glyph-name="space" unicode=" " horiz-adv-x="300" 
 />
    <glyph glyph-name="exclam" unicode="!" horiz-adv-x="241" 
d="M114 134h-2q-13 1 -19 11t-3 23q57 209 124 387q20 52 38 92q16 30 43 20q11 -3 14.5 -14t-2.5 -24q-23 -51 -35 -86q-31 -87 -43 -121q-51 -149 -80 -260q-3 -12 -13 -20t-22 -8zM76 0h-1q-13 1 -20 10t-4 21q3 13 5.5 23l3.5 14l1 5q5 13 17 20t24 5q27 -7 18 -36
q-4 -23 -8 -33q-2 -12 -13 -20.5t-23 -8.5z" />
    <glyph glyph-name="quotedbl" unicode="&#x22;" horiz-adv-x="185" 
d="M133 619q12 0 18.5 -9t4.5 -20l-9 -48q-1 -12 -10.5 -20t-21.5 -8t-19 8t-5 20l9 48q2 12 11.5 20.5t21.5 8.5zM193 514q-12 0 -19 8t-5 20l9 48q2 12 11.5 20.5t21.5 8.5q11 0 18 -9t5 -20l-9 -48q-1 -12 -11 -20t-21 -8z" />
    <glyph glyph-name="numbersign" unicode="#" horiz-adv-x="597" 
d="M592 421q12 0 19 -8.5t5 -19.5q-1 -12 -11.5 -20.5t-22.5 -8.5h-93l-55 -105h75q12 0 18.5 -8.5t4.5 -19.5q-2 -12 -11.5 -20.5t-21.5 -8.5h-94l-44 -84q-12 -19 -30 -19q-3 0 -9 2q-11 4 -14 14t3 21l34 66h-137l-44 -84q-12 -19 -30 -19q-3 0 -9 2q-11 4 -14 14t3 21
l34 66h-74q-12 0 -18.5 8.5t-4.5 20.5q2 11 11.5 19.5t21.5 8.5h93l56 105h-76q-11 0 -17.5 8.5t-5.5 20.5q2 11 12.5 19.5t20.5 8.5h96l44 83q13 25 38 18q23 -10 12 -36l-36 -65h139l44 83q12 25 38 18q22 -10 12 -36l-36 -65h74zM374 259l55 105h-137l-55 -105h137z" />
    <glyph glyph-name="dollar" unicode="$" horiz-adv-x="541" 
d="M391 730q12 0 18.5 -8t4.5 -20l-2 -13q58 -3 117 -20q12 -3 18 -13.5t2 -22.5q-3 -12 -14 -18t-22 -2q-60 16 -112 18l-41 -237q49 -26 83 -54q44 -37 64 -84q12 -30 12 -63q0 -19 -5 -42q-14 -56 -56 -93q-43 -40 -109 -52q-25 -5 -58 -5l-6 -33q-1 -12 -10.5 -20
t-21.5 -8t-19 8t-5 20l6 36q-33 4 -74 18q-54 18 -95 48q-26 18 -40 38q-7 10 -5.5 21.5t11.5 19.5q25 16 42 -7q16 -24 75 -52q46 -21 97 -27l51 294q-44 20 -81 52q-37 34 -51 69q-10 27 -10 49q0 46 33 86q22 25 51 41q50 28 116 34l3 14q1 12 11 20t22 8zM426 275
q-30 32 -77 58l-48 -273q12 0 38 4q47 8 79 37q30 27 39 64q3 15 3 28q0 22 -8 41q-7 19 -26 41zM239 469q25 -28 69 -51l37 209q-24 -4 -52 -13q-39 -14 -60 -39q-38 -52 6 -106z" />
    <glyph glyph-name="percent" unicode="%" horiz-adv-x="548" 
d="M579 654q8 -6 8.5 -17.5t-6.5 -21.5l-490 -603q-12 -12 -26 -12q-16 0 -22 14.5t6 28.5l489 603q21 23 41 8zM87 532q11 57 56 97.5t95 40.5t77.5 -40.5t16.5 -97.5q-12 -57 -56 -97t-95 -40q-50 0 -78 40t-16 97zM138 530q-7 -33 8.5 -56t43.5 -23q29 0 53.5 23t31.5 56
q6 33 -9.5 56.5t-43.5 23.5q-29 0 -53.5 -23.5t-30.5 -56.5zM297 132q11 57 56 97.5t95 40.5t77.5 -40.5t16.5 -97.5q-12 -57 -56 -97t-95 -40q-50 0 -78 40t-16 97zM348 130q-7 -33 8.5 -56t43.5 -23q29 0 53.5 23t31.5 56q6 33 -9.5 56.5t-43.5 23.5q-29 0 -53.5 -23.5
t-30.5 -56.5z" />
    <glyph glyph-name="ampersand" unicode="&#x26;" horiz-adv-x="508" 
d="M512 56q6 -10 2 -24t-16 -22q-10 -8 -24 -6.5t-21 11.5q-7 11 -23 36t-24 38q-22 -20 -54 -38q-86 -51 -165 -51q-51 0 -89 20q-47 30 -54.5 76t11.5 88t55 86q55 64 147 128q-7 22 -13 52q-10 55 -3 92q6 32 25 61q18 27 46 44q14 10 38 18q40 13 78.5 -1t52.5 -53
q5 -16 5.5 -32.5t-4.5 -32t-12 -30t-19 -29t-22 -26t-25 -25t-25 -21.5t-24 -19t-19 -16q0 -1 1 -3.5t1.5 -4.5t1.5 -4q27 -68 86 -173q16 19 30 41q8 13 22 17.5t25 -0.5q11 -6 13.5 -18.5t-4.5 -25.5q-27 -40 -54 -69q16 -27 54 -84zM314 566q-18 -33 1 -125q34 26 51 43
q31 31 44 55q8 10 6.5 33.5t-21.5 30.5q-25 7 -47.5 -5.5t-33.5 -31.5zM325 105q19 11 51 36q-40 69 -68 127q-18 35 -31 72q-90 -68 -119 -106q-75 -99 -32 -146q21 -23 72 -23q59 0 127 40z" />
    <glyph glyph-name="quotesingle" unicode="'" horiz-adv-x="107" 
d="M133 619q12 0 18.5 -9t4.5 -20l-9 -48q-1 -12 -10.5 -20t-21.5 -8t-19 8t-5 20l9 48q2 12 11.5 20.5t21.5 8.5z" />
    <glyph glyph-name="parenleft" unicode="(" horiz-adv-x="250" 
d="M321 718q9 -7 8 -20t-10 -23q-26 -26 -53 -68q-29 -44 -52 -99q-55 -115 -79 -243q-18 -104 -11 -216q11 -98 39 -163q5 -10 0.5 -23t-16.5 -20q-8 -4 -19 -4q-17 0 -23 13q-30 60 -42 181q-9 113 11 232q19 101 58 199q33 89 83 169q26 42 63 81q9 10 22 11.5t21 -7.5z
" />
    <glyph glyph-name="parenright" unicode=")" horiz-adv-x="310" 
d="M-11 -149q-9 7 -8 20t10 23q26 26 53 68q29 44 52 99q55 115 79 243q18 104 11 216q-11 98 -39 163q-5 10 -0.5 23t16.5 20q8 4 19 4q17 0 23 -13q30 -60 42 -181q9 -113 -11 -232q-19 -101 -58 -199q-33 -89 -83 -169q-26 -42 -63 -81q-9 -10 -22 -11.5t-21 7.5z" />
    <glyph glyph-name="asterisk" unicode="*" horiz-adv-x="400" 
d="M408 568q3 -10 -2 -21.5t-16 -16.5l-104 -54l85 -54q20 -14 4 -39q-12 -14 -28 -14q-5 0 -13 3l-84 55l-20 -109q-1 -12 -11 -20t-21 -8q-12 0 -19 8t-5 20l20 109l-105 -55q-6 -3 -14 -3q-17 0 -22 14q-5 11 0 22t17 17l103 54l-84 54q-10 5 -10.5 16.5t7.5 21.5
t19.5 13.5t19.5 -2.5l86 -55l19 109q2 12 11.5 20t21.5 8q11 0 18 -8t5 -20l-19 -109l103 55q27 13 38 -11z" />
    <glyph glyph-name="plus" unicode="+" horiz-adv-x="466" 
d="M452 352q12 0 18.5 -8.5t4.5 -20.5q-2 -11 -11.5 -19.5t-21.5 -8.5h-156l-28 -155q-1 -12 -11 -20t-22 -8q-11 0 -18 8t-6 20l28 155h-155q-12 0 -18.5 8.5t-4.5 19.5q2 12 11.5 20.5t21.5 8.5h155l27 156q2 11 12 19.5t21 8.5q12 0 19 -8.5t5 -19.5l-27 -156h156z" />
    <glyph glyph-name="comma" unicode="," horiz-adv-x="189" 
d="M115 96q34 -3 41.5 -26.5t-17.5 -64.5q-23 -34 -41 -48q-7 -4 -15 -4q-11 0 -16 8q-12 15 8 31q11 10 15 14q-15 3 -21 12q-17 23 0.5 50.5t45.5 27.5z" />
    <glyph glyph-name="hyphen" unicode="-" horiz-adv-x="394" 
d="M380 311q12 0 18.5 -8t4.5 -20q-1 -12 -10.5 -20t-21.5 -8h-296q-12 0 -19 8t-5 20t11.5 20t21.5 8h296z" />
    <glyph glyph-name="period" unicode="." horiz-adv-x="184" 
d="M61 46q2 19 17 32.5t34 13.5t30.5 -13.5t9.5 -32.5q-3 -19 -18.5 -32.5t-34.5 -13.5t-30 13.5t-8 32.5z" />
    <glyph glyph-name="slash" unicode="/" horiz-adv-x="475" 
d="M473 674q22 -13 6 -37l-397 -621q-10 -16 -27 -16q-8 0 -13 2q-9 5 -11.5 16t4.5 21l398 622q6 10 17.5 14t22.5 -1z" />
    <glyph glyph-name="zero" unicode="0" horiz-adv-x="555" 
d="M105 33q-47 37 -60 105q-9 47 2 111q10 52 32 110q45 119 109 194q62 75 139 106q43 19 97 19q32 0 60 -6q22 -7 20 -25q29 -25 40 -46q45 -78 24 -201q-5 -32 -20 -81q-44 -134 -114 -212q-101 -104 -215 -107h-5h-8q-59 0 -101 33zM270 557q-81 -71 -133 -211
q-18 -45 -29 -97q-12 -74 8 -122q17 -40 54 -56q75 -26 150 17q58 30 105 101q36 56 63 139q12 34 19 72q18 106 -17 162q-29 49 -76 49q-14 0 -27 -5q-14 -5 -25 4q-36 -6 -92 -53z" />
    <glyph glyph-name="one" unicode="1" horiz-adv-x="247" 
d="M77 0h-2q-12 1 -19.5 10.5t-4.5 22.5q29 134 90 329q45 143 75 227l-2 -1q-43 -28 -73 -58q-10 -10 -22.5 -11.5t-20.5 6.5q-9 8 -8 21t11 22q55 57 128 93q21 12 35 16q17 6 30 -5q10 -12 5 -30q-41 -97 -99 -288q-65 -212 -88 -324q-2 -13 -12.5 -21.5t-22.5 -8.5z" />
    <glyph glyph-name="two" unicode="2" horiz-adv-x="572" 
d="M34 13q-7 13 1 30q54 84 169 156q20 12 61 35.5t71.5 42.5t55.5 38q61 45 94 96q16 25 26 52t13.5 55.5t-11.5 51t-48 31.5q-24 6 -49 6q-52 0 -94 -19q-46 -19 -79 -55q-23 -31 -30 -55q-5 -13 -17 -20t-24 -5q-11 2 -16.5 12t-1.5 23q12 40 45 80q31 35 69 56
q72 43 158 45q67 -3 107 -32t50 -60q12 -31 4 -74q-10 -56 -52 -119q-36 -54 -82 -92t-95 -68q-21 -13 -62 -36t-70.5 -41.5t-53.5 -36.5q-29 -20 -50 -46q108 6 205 6q84 0 120 -4q13 -1 19.5 -10t3.5 -22t-14 -21t-23 -7q-54 3 -117 3q-135 0 -258 -9h-3q-15 0 -22 13z
" />
    <glyph glyph-name="three" unicode="3" horiz-adv-x="568" 
d="M21 29q2 13 11.5 22.5t22.5 10.5q143 7 253 48q60 27 96 58t43 46.5t9 28.5q7 36 -18 61q-25 28 -73 28q-13 -1 -35.5 -5.5l-27.5 -5.5q-13 -4 -22 2.5t-10 18.5q-3 26 25 37q73 13 140 48q55 33 70.5 69.5t-1.5 62t-50.5 41t-69.5 12.5q-90 0 -182 -68q-11 -8 -23 -7
t-20 11q-14 23 13 44q111 81 223 81q65 0 111 -26q45 -26 63 -70q13 -29 7 -65q-7 -34 -26 -60q-21 -28 -54 -54q-18 -12 -40 -25q76 -51 61 -130q-8 -45 -40 -84q-34 -42 -91 -75q-123 -71 -337 -84h-3q-11 0 -18.5 8.5t-6.5 20.5z" />
    <glyph glyph-name="four" unicode="4" horiz-adv-x="518" 
d="M313 0h-2q-13 1 -19.5 10.5t-3.5 22.5q37 145 67 252h-4q-90 0 -162 -16t-100 -16q-14 0 -24 6q-46 29 4 117q24 41 47 71q58 75 120 142q38 39 72 68q10 9 23 9t21 -9q7 -9 4.5 -22t-12.5 -22q-15 -11 -40 -36q-5 -6 -22.5 -23.5t-27.5 -28.5q-43 -47 -99 -120
q-54 -78 -44 -88q1 -2 3 -1q112 30 248 30h11q56 185 115 305q15 28 43 21q11 -5 15 -16t-3 -23q-55 -112 -109 -289l50 -4q12 -1 18.5 -11t2.5 -23t-14.5 -20.5t-22.5 -6.5l-53 3q-30 -103 -67 -254q-3 -12 -13 -20t-22 -8z" />
    <glyph glyph-name="five" unicode="5" horiz-adv-x="540" 
d="M21 26q1 13 10 23t22 12q136 19 231 66q78 38 118 89q19 26 24 53q3 20 -1 35t-7.5 18.5t-12.5 11.5q-30 30 -94 30q-56 0 -111 -21q-26 -9 -46 -9q-18 0 -32 9q-17 13 -21 38t1.5 46t13.5 38q22 54 45 96.5t34.5 58.5t14.5 19q41 24 103 33q46 6 120 6q70 0 114 -3
q12 -1 18.5 -10.5t3.5 -22.5q-2 -13 -13 -21t-24 -7q-9 0 -30 1.5t-41 2t-39 0.5q-31 0 -85 -4q-37 -3 -71 -12q-5 -1 -12 -4t-8 -3l-36 -67q-24 -45 -35 -76q-23 -56 -3 -56q2 0 16 4q72 26 134 26q64 0 105 -26q43 -24 57 -68q20 -74 -35 -148q-33 -42 -86 -77
q-119 -79 -311 -107h-4q-12 0 -20 7t-7 19z" />
    <glyph glyph-name="six" unicode="6" horiz-adv-x="456" 
d="M195 0q-60 0 -101 29q-40 30 -54.5 74.5t-8 88.5t26 93t39 82.5t39.5 61.5q98 130 265 236q12 8 24 5.5t17 -12.5q6 -11 1.5 -23.5t-15.5 -19.5q-157 -98 -244 -217q-65 -89 -85 -176q-10 -50 -3 -80q6 -25 22 -45q30 -36 87 -36q53 0 101 33q54 38 85 110q7 16 10 36
q7 40 -6 75q-12 33 -42 49q-20 11 -47 11q-34 0 -80 -20q-12 -5 -23 -0.5t-14 15.5q-4 12 2.5 24t19.5 18q52 24 105 24q79 0 124 -61q35 -59 23 -135q-23 -119 -125 -193q-69 -47 -143 -47z" />
    <glyph glyph-name="seven" unicode="7" horiz-adv-x="487" 
d="M107 0h-7q-12 3 -17 13.5t0 23.5q70 171 166 324q97 148 196 249q-46 2 -74 2q-133 0 -245 -23q-11 -2 -20.5 5t-10.5 19q0 13 9 24t21 13q119 23 257 23q57 0 141 -6q20 -2 23 -19q4 -19 -13 -33q-122 -106 -231 -280q-101 -158 -161 -311q-10 -24 -34 -24z" />
    <glyph glyph-name="eight" unicode="8" horiz-adv-x="501" 
d="M87 20q-40 24 -52 62q-8 28 -2 56q5 29 27 68q24 38 53 67q40 40 94 76q-32 16 -53 44q-34 45 -23 103q11 63 68 111q57 49 143 61q34 4 47 4q49 0 88 -18q35 -19 49 -54q8 -22 3 -52q-5 -29 -22 -55q-13 -22 -44 -55q-49 -44 -110 -77q78 -36 98 -106t-26 -143
q-71 -103 -210 -112h-27q-61 0 -101 20zM183 261q-39 -27 -62 -66t-26 -57q-15 -55 28 -76t102 -10.5t95 36.5q33 23 50.5 50.5t17.5 50.5t-4.5 40t-12.5 29q-27 43 -93 65q-48 -24 -95 -62zM379 610h-1q-18 0 -37 -3q-67 -8 -107 -43q-35 -30 -41 -68q-6 -34 13 -62
q26 -33 77 -45l4 2q73 35 111 66q38 28 57 60q10 19 10.5 35.5t-3.5 25t-9 11.5q-25 21 -74 21z" />
    <glyph glyph-name="nine" unicode="9" horiz-adv-x="477" 
d="M332 674q60 0 101 -29q40 -30 54.5 -74.5t8 -88.5t-26 -93t-39 -82.5t-39.5 -61.5q-98 -130 -265 -236q-12 -8 -24 -5.5t-17 12.5q-6 11 -1.5 23.5t15.5 19.5q157 98 244 217q65 89 85 176q10 50 3 80q-6 25 -22 45q-30 36 -87 36q-53 0 -101 -33q-54 -38 -85 -110
q-7 -16 -10 -36q-7 -40 6 -75q12 -33 42 -49q20 -11 47 -11q34 0 80 20q12 5 23 0.5t14 -15.5q4 -12 -2.5 -24t-19.5 -18q-52 -24 -105 -24q-79 0 -124 61q-35 59 -23 135q23 119 125 193q69 47 143 47z" />
    <glyph glyph-name="colon" unicode=":" horiz-adv-x="189" 
d="M61 46q2 19 17 32.5t34 13.5t30.5 -13.5t9.5 -32.5q-3 -19 -18.5 -32.5t-34.5 -13.5t-30 13.5t-8 32.5zM117 376q2 19 17 32.5t34 13.5t30.5 -13.5t9.5 -32.5q-3 -19 -18.5 -32.5t-34.5 -13.5t-30 13.5t-8 32.5z" />
    <glyph glyph-name="semicolon" unicode=";" horiz-adv-x="189" 
d="M117 376q2 19 17 32.5t34 13.5t30.5 -13.5t9.5 -32.5q-3 -19 -18.5 -32.5t-34.5 -13.5t-30 13.5t-8 32.5zM115 96q34 -3 41.5 -26.5t-17.5 -64.5q-23 -34 -41 -48q-7 -4 -15 -4q-11 0 -16 8q-12 15 8 31q11 10 15 14q-15 3 -21 12q-17 23 0.5 50.5t45.5 27.5z" />
    <glyph glyph-name="less" unicode="&#x3c;" horiz-adv-x="360" 
d="M307 161q8 -8 7 -20t-9 -21q-9 -10 -23 -10q-12 0 -16 6l-206 182q-12 7 -11 21.5t19 25.5l270 182q24 17 38 -4q5 -10 1.5 -21.5t-13.5 -18.5l-239 -162z" />
    <glyph glyph-name="equal" unicode="=" horiz-adv-x="497" 
d="M483 429q11 0 18 -8.5t5 -20.5q-2 -11 -12 -19.5t-21 -8.5h-368q-12 0 -18.5 8.5t-4.5 19.5q2 12 11.5 20.5t21.5 8.5h368zM452 254q11 0 18 -8t5 -20q-1 -12 -11 -20t-21 -8h-368q-12 0 -19 8t-5 20t11.5 20t21.5 8h368z" />
    <glyph glyph-name="greater" unicode="&#x3e;" horiz-adv-x="371" 
d="M123 486q-8 8 -7 20t9 21q9 10 23 10q12 0 16 -6l206 -182q12 -7 11 -21.5t-19 -25.5l-270 -182q-24 -17 -38 4q-5 10 -1.5 21.5t13.5 18.5l239 162z" />
    <glyph glyph-name="question" unicode="?" horiz-adv-x="450" 
d="M136 126q-10 6 -12 18t6 24q46 68 114 131q88 83 95 91q26 30 43 66q9 17 13 41t-1 44q-6 19 -19 32q-30 27 -78 27q-36 0 -73 -17q-39 -21 -63 -52q-21 -27 -30 -57q-4 -13 -15.5 -20.5t-23.5 -4.5q-13 1 -18.5 11.5t-1.5 23.5q16 43 41 77q26 34 59 57q65 43 136 43
q54 0 90 -23q41 -24 56 -70q10 -35 3 -71q-4 -20 -12 -40.5t-16.5 -36.5t-20.5 -33t-21.5 -28.5t-22.5 -24.5t-19.5 -19t-17 -15.5t-11.5 -10.5q-5 -4 -19 -17.5t-20.5 -19.5t-19 -18t-20.5 -21t-18.5 -21t-20 -24.5t-18.5 -26.5q-12 -18 -31 -18q-7 0 -13 3zM103 0h-3
q-13 2 -19.5 11.5t-2.5 22.5l5 20q4 13 15 20.5t24 6.5q12 -1 18.5 -10.5t3.5 -22.5l-7 -20q-7 -28 -34 -28z" />
    <glyph glyph-name="at" unicode="@" horiz-adv-x="929" 
d="M669 3q-13 1 -25 4.5t-27.5 13t-24 25.5t-12.5 41.5t6 61.5q-18 -26 -51 -59q-92 -89 -186 -89h-5q-57 2 -86 45q-29 42 -17 109q9 47 39 103q58 100 154 150q73 36 147 36q37 0 55 -7q11 -4 14.5 -15t-3.5 -23q-6 -11 -17.5 -16.5t-22.5 -1.5q-8 5 -36 5q-61 0 -116 -29
q-77 -40 -125 -122q-25 -44 -31 -80q-9 -46 10 -71q17 -23 47 -24h3q66 0 138 68q68 66 122 184q18 61 42 107q14 24 38 19q25 -7 17 -34q-29 -76 -41 -104q-13 -42 -21 -91q-7 -35 -11 -82q-6 -70 32 -75q44 4 80.5 46.5t55.5 90t30 97.5q23 121 -50.5 194.5t-201.5 73.5
q-164 0 -287 -100q-67 -53 -114.5 -128t-59.5 -155q-20 -144 48 -232.5t203 -88.5q122 0 245 51q90 37 154 96q24 20 43 1q8 -9 6 -21t-12 -21q-79 -73 -177 -110q-110 -47 -252 -52q-43 -1 -87.5 7.5t-93.5 34t-84 66t-51.5 110.5t-2.5 159q14 90 69.5 178t133.5 149
q143 117 330 117q153 0 241 -90t62 -239q-10 -52 -29 -100.5t-47 -92.5t-69.5 -69t-88.5 -21z" />
    <glyph glyph-name="A" unicode="A" horiz-adv-x="593" 
d="M654 389q12 -1 20.5 -9.5t7.5 -20.5t-9.5 -20.5t-20.5 -7.5h-23q-43 0 -83 -4q-26 -156 -73 -306q-5 -21 -27 -21q-6 0 -9 1q-11 4 -17 14.5t-2 22.5q40 130 68 282q-169 -22 -298 -74q-50 -117 -84 -226q-4 -11 -14.5 -17t-22.5 -2q-11 4 -17 15t-2 22q31 96 61 170
l-32 -21q-6 -5 -17 -5q-15 0 -24 12q-7 10 -5 21.5t12 18.5q42 31 101 56q94 211 192 313q73 71 139 71q28 0 47 -16q16 -12 27 -38q16 -37 16 -106q0 -51 -10 -128q39 3 74 3h25zM222 320q129 44 274 60q11 77 11 134q0 44 -7 68q-5 23 -15 31q-4 3 -10 3q-43 0 -97 -54
q-52 -54 -108 -151q-27 -48 -48 -91z" />
    <glyph glyph-name="B" unicode="B" horiz-adv-x="552" 
d="M562 556q0 -91 -100 -161l-4 -3q45 -10 74 -43t29 -80q0 -24 -7 -48q-32 -114 -165 -177q-98 -44 -184 -44h-12q-12 2 -20 11t-7 21t10 20t21 7q3 -1 8 -1q74 0 159 39q110 52 134 140q4 16 4 32q0 34 -25 52q-28 20 -79 20q-33 0 -75 -11q-11 -2 -21.5 4t-13.5 17
q-3 12 3 22.5t17 13.5q71 20 121 56q73 52 74 114v3q0 36 -26 56q-27 19 -80 19q-34 1 -80 -10q9 -8 11 -19t-5 -20q-60 -88 -113.5 -254t-79.5 -308q-5 -24 -29 -24h-5q-12 2 -19 12t-5 22q28 148 80.5 312t116.5 264q-95 -37 -159 -99q-8 -9 -20.5 -9t-20.5 9
q-8 8 -8 20.5t8 20.5q67 66 157 103.5t171 38.5q69 0 114 -31q51 -35 51 -103v-4z" />
    <glyph glyph-name="C" unicode="C" horiz-adv-x="517" 
d="M225 0h-6q-85 2 -128 54q-41 47 -41 124q1 100 62 214t160 198q99 81 172 83q50 0 78 -36q25 -32 25 -81q0 -80 -58 -156q-19 -22 -41 -5q-10 7 -11.5 19t6.5 22q46 59 46 120q0 28 -13 45q-11 13 -32 14q-52 0 -135 -70q-88 -73 -144.5 -179t-55.5 -188q0 -57 26 -86
q28 -31 85 -34h5q73 0 152 57q59 44 107 107q7 10 19 11.5t22 -5.5t11.5 -19t-5.5 -21q-54 -71 -120 -120q-93 -68 -186 -68z" />
    <glyph glyph-name="D" unicode="D" horiz-adv-x="567" 
d="M565 634q52 -58 52 -153q0 -98 -55 -213q-65 -134 -188 -210q-93 -56 -171 -58q-7 0 -10 1q-12 1 -20 10t-7 21t10 20t22 7h5q59 -2 140 49q107 64 166 186q50 103 50 187q0 74 -37 113q-38 42 -116 43q-29 0 -69 -8q-12 -2 -20 -4q9 -7 11 -18.5t-5 -20.5
q-60 -88 -114 -255t-79 -307q-5 -24 -29 -24h-5q-12 2 -18.5 12.5t-4.5 21.5q27 146 79.5 311t116.5 265q-90 -33 -159 -99q-8 -8 -20.5 -8t-20.5 8q-8 9 -8 21t8 20q106 104 257 135q45 8 80 8q103 0 159 -61z" />
    <glyph glyph-name="E" unicode="E" horiz-adv-x="525" 
d="M576 691q12 0 20.5 -8.5t8.5 -20.5t-8.5 -20.5t-20.5 -8.5q-132 0 -248 -25q0 -10 -5 -18q-46 -68 -98 -207q123 37 259 43q12 0 21 -8t10 -20q0 -12 -8 -21t-20 -9q-156 -6 -285 -55q-43 -131 -66 -254q4 -1 13 -1q64 0 154.5 17.5t158.5 49.5q10 5 22 0.5t16 -15.5
q5 -10 1 -22t-15 -16q-77 -36 -171 -54t-166 -18q-36 0 -55 5q-11 3 -17.5 13t-4.5 21q25 129 58 238q-10 -6 -14 -10q-8 -5 -17 -5q-15 0 -24 11q-7 10 -5.5 22t11.5 19q31 23 73 42q51 148 99 232q-91 -29 -144 -74q-8 -7 -19 -7q-15 0 -22 10q-8 9 -7 21t10 20
q78 65 210 99t295 34z" />
    <glyph glyph-name="F" unicode="F" horiz-adv-x="494" 
d="M576 691q12 0 20.5 -8.5t8.5 -20.5t-8.5 -20.5t-20.5 -8.5q-132 0 -248 -25q0 -12 -5 -18q-47 -70 -98 -207q116 35 259 43q12 0 21 -8t10 -20q0 -12 -8 -21t-21 -10q-153 -4 -284 -54q-40 -123 -66 -260q-6 -29 -14 -40.5t-28 -12.5q-25 7 -22 33q26 139 58 244
q-10 -6 -14 -10q-8 -6 -17 -6q-14 0 -24 12q-16 24 6 41q31 23 73 42q45 138 99 232q-92 -29 -144 -75q-10 -7 -19 -7q-14 0 -23 11q-7 9 -6 21t10 20q78 65 210 99t295 34z" />
    <glyph glyph-name="G" unicode="G" horiz-adv-x="526" 
d="M524 227q16 -12 8 -38q-24 -91 -62 -164q-56 -108 -141 -167q-69 -48 -154 -61h-4q-25 0 -29 25q-2 13 5 23t20 11q70 10 128 50q48 33 90 92q25 37 47 86l-22 -18q-96 -68 -186 -68h-6q-83 3 -128 54q-40 46 -40 124q1 100 61.5 214.5t159.5 197.5t173 83q49 2 78 -36
q24 -31 24 -80q0 -80 -58 -156q-17 -22 -41 -6q-10 7 -11.5 19.5t6.5 21.5q46 61 46 121q0 29 -12 44q-11 14 -32 14q-53 0 -135 -70q-89 -73 -145.5 -179t-55.5 -188q0 -55 26 -86q28 -32 85 -33h5q75 0 152 57q61 44 109 109q8 8 19 9.5t20 -5.5z" />
    <glyph glyph-name="H" unicode="H" horiz-adv-x="610" 
d="M624 557q-31 -55 -61 -127l-7 -16q33 0 48 -1q4 0 13 -0.5t13 -0.5q12 -2 19.5 -11t6.5 -21t-10.5 -20t-21.5 -6q-3 0 -11 0.5t-12 0.5q-31 1 -67 0q-54 -147 -89 -331q-1 -10 -9.5 -17t-19.5 -7h-5q-12 2 -19 12.5t-5 22.5q32 166 82 314q-141 -18 -274 -66
q-37 -122 -64 -259q-1 -10 -9.5 -17t-19.5 -7h-5q-12 2 -19 12.5t-5 22.5q20 110 52 220l-30 -16q-8 -5 -17 -5q-15 2 -23 14q-7 10 -4 21.5t13 18.5q32 23 85 45q46 138 109 253q29 52 54 85q8 10 19.5 11.5t21.5 -5.5q10 -8 11.5 -20t-5.5 -22q-28 -39 -50 -78
q-31 -55 -61 -127l-27 -72q133 41 270 52q37 95 81 176q24 42 54 85q18 23 42 6q10 -7 11.5 -19.5t-6.5 -22.5q-24 -33 -49 -78z" />
    <glyph glyph-name="I" unicode="I" horiz-adv-x="260" 
d="M384 678q12 -2 19.5 -11.5t5.5 -21.5q-1 -13 -11 -20.5t-22 -5.5q-10 2 -21 2q-54 -76 -103 -193q-69 -164 -110 -365q12 0 24 6q11 6 22.5 3t17.5 -14t3 -22.5t-14 -17.5q-38 -18 -104 -18q-21 0 -45 2q-12 2 -19 11.5t-6 22.5q1 12 11 19.5t22 5.5t27 -2
q43 221 116 392q39 92 84 165q-6 -1 -15.5 -5t-15.5 -4q-18 0 -25 15q-7 11 -3.5 22.5t14.5 17.5q8 5 24 10q15 4 26 5q25 3 53 3q21 0 45 -2z" />
    <glyph glyph-name="J" unicode="J" horiz-adv-x="387" 
d="M471 680q12 -2 19.5 -11.5t5.5 -21.5q-1 -12 -11 -19.5t-22 -5.5q-1 0 -5 0.5t-7 0.5q-6 -36 -26 -126q-26 -104 -43 -150q-32 -91 -54 -139q-32 -73 -68 -118q-31 -38 -60 -57q-49 -33 -105 -33h-1q-12 0 -40 4q-12 2 -18.5 12.5t-4.5 22.5t12 18.5t22 4.5q15 -3 29 -3
q41 1 73 23q31 21 61 65q42 63 99 219q18 55 40 145q12 46 24 111q-5 -1 -24 -6.5t-30 -5.5q-17 0 -25 14q-6 11 -3 23.5t14 17.5q39 18 103 18q27 0 45 -3z" />
    <glyph glyph-name="K" unicode="K" horiz-adv-x="498" 
d="M586 602q4 -12 -1.5 -22.5t-16.5 -15.5q-21 -8 -68 -30q-51 -26 -89 -49q-108 -62 -194 -127l-21 -16q15 -33 28 -54q21 -37 53 -80q69 -94 152 -157q10 -7 11.5 -19t-5.5 -22q-9 -12 -23 -12q-10 0 -18 6q-65 48 -129 124q-54 64 -92 130l-11 20q-38 -121 -63 -254
q-5 -24 -29 -24q-14 0 -23 10.5t-6 24.5q24 126 54 228q-19 0 -26 17.5t5 31.5q24 26 54 51q18 52 34 87q58 136 118 216q8 10 19.5 11.5t21.5 -5.5q10 -8 11.5 -19.5t-5.5 -21.5q-55 -74 -109 -199l28 20q106 71 199 120q57 30 103 47q11 4 22 -1t16 -16z" />
    <glyph glyph-name="L" unicode="L" horiz-adv-x="510" 
d="M77 5q-13 3 -20 11q-8 11 -6 23q44 234 121 415q58 136 118 216q8 10 20 11.5t22 -5.5t11.5 -19t-6.5 -22q-57 -79 -110 -204q-69 -160 -111 -371q14 -1 46 -1q71 0 146 12q82 15 141 40q10 5 22 0.5t16 -15.5q5 -11 0.5 -22.5t-15.5 -16.5q-64 -29 -154 -44
q-78 -13 -156 -13q-43 0 -85 5z" />
    <glyph glyph-name="M" unicode="M" horiz-adv-x="657" 
d="M524 0h-3q-13 1 -19 11.5t-2 22.5q50 173 82 291q43 156 56 231q6 35 6 45q-24 -22 -60 -68q-81 -102 -146 -223q-50 -91 -72 -165q-4 -12 -14.5 -19.5t-22.5 -6.5q-11 0 -18 8.5t-6 20.5q12 87 23 186q12 104 13 175q5 111 -6 105q-15 -11 -29 -28q-28 -36 -58 -96
q-73 -147 -156 -462q-3 -13 -14 -21t-23 -7q-13 1 -19.5 10t-4.5 22q99 360 183 516q24 44 47 71q68 78 104 60q44 -25 37 -186v-12q-5 -69 -12 -138q1 2 6 9.5t7 12.5q60 104 122 185q41 52 74 86q23 22 36 30q12 8 21 11q25 6 37 -6q7 -7 9 -14q5 -12 5 -28q0 -27 -8 -73
q-15 -81 -57 -237q-38 -143 -83 -292q-3 -11 -13 -19t-22 -8z" />
    <glyph glyph-name="N" unicode="N" horiz-adv-x="577" 
d="M387 1q-46 3 -60 59q-10 39 -10 97q-2 58 10 256q5 71 7 149q0 21 -2 41l-16 -18q-25 -31 -61 -100q-69 -142 -154 -456q-3 -13 -13.5 -21t-23.5 -7q-12 1 -19 10t-4 22q84 324 183 515q21 39 45 68q8 10 16.5 19t21.5 20t24.5 17.5t24 6.5t21.5 -9q25 -20 18 -145
l-15 -258q-3 -98 2 -150q6 -122 77 66q3 7 4 9q65 158 152 463q4 13 15.5 20.5t22.5 6.5q13 -2 19.5 -12t2.5 -23q-55 -186 -96 -307q-44 -129 -79 -206q-50 -109 -88 -128q-10 -5 -25 -5z" />
    <glyph glyph-name="O" unicode="O" horiz-adv-x="560" 
d="M118 38q-49 38 -66 106q-12 45 -11 96q2 51 16 104q25 101 87 184q62 82 140 121q56 28 110 28q47 0 85 -20q36 -19 63 -55q52 -73 47 -179q-2 -47 -13 -91q-25 -107 -84 -189q-57 -81 -138 -118q-56 -25 -115 -25q-72 0 -121 38zM310 597q-43 -21 -83 -61
q-83 -85 -113 -204q-13 -52 -14 -92q-3 -63 19 -110q20 -41 60 -59q25 -12 62 -12q46 0 89 19q44 20 80 57q78 79 109 209q11 44 11 79q3 66 -21 115q-19 45 -59 66q-26 14 -58 14q-42 0 -82 -21z" />
    <glyph glyph-name="P" unicode="P" horiz-adv-x="510" 
d="M584 582q16 -34 16 -68q0 -43 -22 -81q-21 -41 -63 -74q-90 -71 -255 -91h-4q-11 0 -19.5 7.5t-9.5 18.5q-1 12 6.5 21.5t19.5 11.5q112 13 186 53q63 34 87 81q15 27 15 53q0 21 -10 43q-10 21 -28 36q-44 37 -113 37q-29 0 -66 -8q16 -17 2 -36q-60 -88 -114 -255
t-79 -307q-1 -10 -9.5 -17t-18.5 -7h-6q-12 2 -18.5 12.5t-4.5 21.5q27 146 78 308.5t115 262.5q-1 -1 -2 -1q-2 -1 -3 -1q-73 -29 -155 -94q-10 -8 -22 -7t-20 11t-6.5 22t11.5 20q88 69 170 103q78 31 148 31q67 0 120 -29q51 -28 74 -78z" />
    <glyph glyph-name="Q" unicode="Q" horiz-adv-x="559" 
d="M588 425q-2 -47 -13 -91q-28 -112 -84 -189q-60 -83 -138 -118q-31 -15 -69 -22q20 -26 46 -45q45 -32 112 -45q12 -2 19 -12t4 -22q-2 -10 -10.5 -17t-19.5 -7h-6q-79 15 -135 54q-48 35 -79 91q-57 6 -98 38q-48 36 -67 106q-12 44 -9 95q1 49 15 105q25 101 88 184
q60 82 140 121q54 27 109 27q47 0 84 -20q37 -19 64 -55q50 -68 47 -178zM518 346q10 43 11 79q3 63 -20 114q-21 47 -60 67q-25 13 -58 13q-39 0 -83 -21q-44 -23 -81 -60q-84 -84 -114 -204q-11 -48 -13 -93q-3 -65 19 -109q22 -43 59 -59q28 -13 62 -13q45 0 90 20
q44 20 79 57q76 76 109 209z" />
    <glyph glyph-name="R" unicode="R" horiz-adv-x="530" 
d="M584 583q16 -34 16 -68q0 -44 -22 -82q-21 -41 -63 -74q-82 -63 -215 -85q25 -43 58 -84q41 -52 96 -98q31 -27 54 -40q10 -6 13 -18t-3 -22q-9 -15 -25 -15q-10 0 -15 4q-24 14 -63 46q-36 31 -69 67q-82 90 -117 172q-5 15 2 26q8 13 22 15q112 13 186 53q63 34 87 81
q15 27 15 54q0 20 -10 42q-8 19 -28 37q-45 36 -113 36q-35 0 -66 -8q16 -17 2 -36q-60 -88 -114 -254.5t-79 -307.5q-1 -10 -9.5 -17t-18.5 -7q-4 0 -6 1q-12 2 -18.5 12t-4.5 22q27 145 78.5 307.5t114.5 262.5q-1 -1 -2 -1q-2 -1 -3 -1q-77 -31 -155 -94q-22 -17 -42 4
q-8 10 -6.5 22.5t11.5 19.5q84 67 170 103q78 31 148 31t120 -29q50 -28 74 -77z" />
    <glyph glyph-name="S" unicode="S" horiz-adv-x="541" 
d="M161 22q-54 18 -95 48q-26 18 -40 38q-7 10 -5.5 21.5t11.5 19.5q25 16 42 -7q16 -24 75 -52q69 -30 138 -30q28 0 52 4q47 8 79 37q30 27 39 64q3 15 3 28q0 22 -8 41q-7 19 -26 41q-38 43 -118 78q-54 23 -92 56q-37 34 -51 69q-10 27 -10 49q0 46 33 86q22 25 51 41
q64 36 153 36q64 0 137 -21q12 -3 18 -13.5t2 -22.5q-3 -12 -14 -18t-22 -2q-66 18 -121 18q-53 0 -99 -17q-39 -14 -60 -39q-38 -52 6 -106q32 -36 93 -62q69 -31 111 -67q44 -37 64 -84q12 -30 12 -63q0 -19 -5 -42q-14 -56 -56 -93q-43 -40 -109 -52q-26 -5 -62 -5
q-66 0 -126 21z" />
    <glyph glyph-name="T" unicode="T" horiz-adv-x="389" 
d="M516 674q13 -1 19 -11t3 -23t-14 -21t-24 -7q-91 7 -144 7q-34 0 -52 -1q9 -5 12.5 -14.5t-1.5 -20.5q-44 -108 -89 -252q-50 -167 -72 -287l-2 -13q-2 -12 -12.5 -21.5t-23.5 -9.5h-1q-12 0 -19.5 9t-5.5 21l2 14q19 107 74 295q52 163 93 258q5 14 16 19
q-102 -5 -180 -27q-3 -1 -8 -1q-23 0 -26 23q-1 12 7 22.5t21 14.5q113 31 277 31q82 0 150 -5z" />
    <glyph glyph-name="U" unicode="U" horiz-adv-x="510" 
d="M394 113q-55 -66 -113 -94q-33 -17 -74 -19h-6q-37 0 -65 14q-27 14 -43 43q-11 20 -15 41q-14 70 2 177q9 77 49.5 215t61.5 173q16 25 40 18q24 -9 16 -34q-79 -243 -102 -372q-7 -43 -10 -65.5t-1 -57t14 -56.5q7 -16 19 -23q17 -12 45 -12h4q45 2 95 46q48 42 97 129
q45 80 84 189q38 131 67 229q4 13 15 21t23 6q12 -1 18.5 -10.5t3.5 -21.5q-8 -36 -25 -94t-30 -98l-13 -40q-71 -198 -157 -304z" />
    <glyph glyph-name="V" unicode="V" horiz-adv-x="481" 
d="M542 678q54 -24 49 -92q-4 -54 -19 -99q-16 -53 -47 -113q-57 -116 -139 -225q-53 -68 -98 -109q-14 -13 -32 -23t-44.5 -16.5t-45.5 8.5q-15 10 -25 25q-20 29 -31 81q-14 71 -7 170q18 252 82 375q5 11 16.5 17t22.5 3q11 -2 16.5 -12t1.5 -22q-40 -119 -62 -241
q-19 -104 -17 -197q3 -72 21 -116q11 -23 21 -29q6 0 10 -1t11.5 4.5t13 8.5t14 11.5t13.5 14t13.5 15t12.5 14t10 12.5t8 10q80 95 147 222q46 88 63 149q10 34 10 63q0 34 -34 41q-30 5 -30 30q0 13 8.5 21.5t21.5 8.5q24 0 45 -9z" />
    <glyph glyph-name="W" unicode="W" horiz-adv-x="735" 
d="M822 681q12 -1 18.5 -10.5t3.5 -21.5q-8 -36 -25 -94t-30 -98l-13 -40q-71 -198 -157 -304q-55 -66 -113 -94q-82 -39 -128 3q-27 25 -27 101q-28 -46 -60 -78q-30 -29 -63 -39q-18 -6 -36 -6q-34 0 -58 34q-19 28 -28 78q-13 70 -4 170q15 187 87 382q4 11 16.5 15.5
t23.5 0.5q24 -7 15 -33q-46 -146 -66 -259q-19 -107 -17 -188q1 -72 18 -110q15 -39 48 -23q15 7 31 25q41 43 87 146q37 84 71 189q4 13 15.5 20.5t24.5 5.5q12 -1 18 -11.5t2 -23.5q-40 -123 -54 -208q-11 -57 -9 -92q1 -32 11 -46q11 -21 64 1q24 13 48 34q48 42 97 129
q45 80 84 189q38 131 67 229q4 13 15 21t23 6z" />
    <glyph glyph-name="X" unicode="X" horiz-adv-x="624" 
d="M650 668q5 -10 1.5 -22t-13.5 -18q-59 -34 -119 -82q-69 -55 -129 -117q2 -3 6.5 -12t7.5 -14q106 -192 172 -363q4 -11 -1 -22t-16 -16q-6 -2 -10 -2q-20 0 -28 19q-51 133 -145 311q-11 24 -29 54q-156 -168 -261 -368q-10 -16 -26 -16q-8 0 -14 3q-11 6 -14.5 18
t2.5 22q111 213 283 395q-55 95 -95 152q-18 25 -32 41q-8 10 -7 22t10 20q10 8 22 7t20 -10q12 -14 35 -46q21 -29 41 -62q22 -34 48 -80q67 66 123 110q74 59 127 87q11 6 23 3t18 -14z" />
    <glyph glyph-name="Y" unicode="Y" horiz-adv-x="427" 
d="M566 677q9 -8 10 -20t-7 -22q-83 -98 -162 -226q-122 -192 -193 -390q-8 -19 -28 -19q-7 0 -10 1q-12 4 -17 15.5t-1 22.5q46 126 113 254q-55 44 -104 117q-46 70 -75 150q-16 48 -21 86q-2 12 5.5 21.5t19.5 11.5t21.5 -5.5t11.5 -19.5q5 -36 19 -74q15 -44 41 -91
q46 -88 111 -143q33 58 57 94q85 136 167 233q8 10 20.5 11t21.5 -7z" />
    <glyph glyph-name="Z" unicode="Z" horiz-adv-x="604" 
d="M653 644q0 -24 -24 -33q-22 -8 -50 -27q-22 -14 -64 -49q-100 -86 -211.5 -214.5t-186.5 -238.5l-7 -10q82 13 167 13q69 0 160 -6.5t133 -18.5q11 -3 15.5 -14t-0.5 -23q-10 -23 -34 -23q-5 0 -7 1q-38 10 -126 16.5t-152 6.5q-111 0 -213 -23q-18 -3 -28 10q-9 14 0 31
q19 36 59 93q33 46 89 117q5 6 30.5 38t45.5 55.5t60 66.5t85 87q70 70 131 116q-8 0 -25.5 0.5t-27.5 0.5q-147 0 -260 -27q-13 -3 -22.5 4t-10.5 19t7.5 23t21.5 14q122 28 275 28q78 0 148 -7q24 -3 22 -26z" />
    <glyph glyph-name="bracketleft" unicode="[" horiz-adv-x="253" 
d="M319 696h-63l-154 -810h63q12 0 18.5 -8t4.5 -20q-1 -12 -10.5 -20t-21.5 -8h-91q-14 0 -19 8q-6 8 -5 20l164 866q2 13 11 19q9 9 22 9h91q12 0 18.5 -8t4.5 -20t-11.5 -20t-21.5 -8z" />
    <glyph glyph-name="backslash" unicode="\" horiz-adv-x="414" 
d="M57 674q11 5 22 1t15 -14l277 -622q4 -10 0 -21t-14 -16q-6 -2 -14 -2q-18 0 -24 16l-276 621q-11 24 14 37z" />
    <glyph glyph-name="bracketright" unicode="]" horiz-adv-x="313" 
d="M-6 -114h63l154 810h-63q-12 0 -18.5 8t-4.5 20q1 12 10.5 20t21.5 8h91q14 0 19 -8q6 -8 5 -20l-164 -866q-2 -13 -11 -19q-9 -9 -22 -9h-91q-12 0 -18.5 8t-4.5 20t11.5 20t21.5 8z" />
    <glyph glyph-name="asciicircum" unicode="^" horiz-adv-x="394" 
d="M385 406q3 -9 -2 -20.5t-16 -17.5q-8 -4 -14 -4q-16 0 -22 14l-79 191l-145 -191q-19 -24 -41 -10q-10 6 -10.5 17.5t7.5 20.5l177 232q11 14 27 14h1q16 0 21 -14z" />
    <glyph glyph-name="underscore" unicode="_" horiz-adv-x="477" 
d="M463 -114q12 0 18.5 -8.5t4.5 -19.5q-1 -12 -10.5 -20t-21.5 -8h-439q-12 0 -19 8t-5 20q2 11 11.5 19.5t21.5 8.5h439z" />
    <glyph glyph-name="grave" unicode="`" horiz-adv-x="136" 
d="M115 642l38 -83q5 -10 0.5 -22t-16.5 -18q-5 -4 -14 -4q-16 0 -22 13l-38 84q-5 9 -0.5 20.5t16.5 17.5q10 7 20.5 4t15.5 -12z" />
    <glyph glyph-name="a" unicode="a" 
d="M413 3q-7 6 -12 15.5t-7.5 22.5t-4.5 24t-2 26.5v23.5t1 21l1 14q-18 -26 -51 -59q-92 -89 -186 -89h-5q-57 2 -86 45q-29 42 -17 109q9 47 39 103q58 100 154 150q73 36 147 36q37 0 55 -7q11 -4 14.5 -15t-3.5 -23q-6 -11 -17.5 -16.5t-22.5 -1.5q-8 5 -36 5
q-61 0 -116 -29q-77 -40 -125 -122q-25 -44 -31 -80q-9 -46 10 -71q17 -23 47 -24h3q66 0 138 68q68 66 122 184q18 61 42 107q14 24 38 19q25 -7 17 -34q-29 -76 -41 -104q-13 -42 -21 -91q-7 -35 -11 -82q-3 -49 6 -74q11 -27 2 -39q-10 -15 -28 -15q-9 0 -13 3z" />
    <glyph glyph-name="b" unicode="b" horiz-adv-x="508" 
d="M187 0h-1q-34 0 -63 4q-12 2 -18 12t-2 23q4 12 15.5 19.5t24.5 6.5q28 -3 53 -3q110 0 183 66q59 56 73 135q8 45 -4 79q-19 43 -76 43q-79 0 -153 -78q-88 -92 -122 -251q-1 -10 -5 -23q-2 -13 -13 -22t-24 -8q-12 0 -19 9t-5 22l5 26q39 181 82 318q50 162 88 233
q22 38 42 52q21 9 33.5 1t11.5 -24q-1 -10 -16.5 -27.5t-24.5 -37.5q-23 -48 -52 -133q-1 -3 -34 -110l11 12q95 101 206 101q42 0 75 -18.5t47 -53.5q20 -43 9 -110q-17 -101 -97 -175q-91 -88 -230 -88z" />
    <glyph glyph-name="c" unicode="c" horiz-adv-x="447" 
d="M76 37q-47 42 -32 122q8 46 38 102q49 90 127 139q68 45 139 45q39 0 65 -15q31 -16 38 -50q2 -12 -5.5 -23.5t-19.5 -15.5q-13 -5 -23.5 0.5t-11.5 17.5q-5 11 -15 18q-14 9 -38 9q-51 0 -103 -34q-62 -40 -101 -111q-26 -50 -30 -82q-8 -50 17 -75q27 -24 79 -24
q51 0 109 24q57 24 96 66q9 9 22.5 10.5t21.5 -5.5t7.5 -20t-9.5 -23q-48 -51 -122 -83q-69 -29 -135 -29q-73 0 -114 37z" />
    <glyph glyph-name="d" unicode="d" horiz-adv-x="515" 
d="M182 0h-7q-43 2 -71 18q-25 14 -44 45q-29 51 -14 129q3 17 13 53q33 93 111 152q75 59 155 59q78 2 120 -63q6 -11 2.5 -23t-15.5 -20q-11 -8 -23.5 -7t-18.5 11q-26 39 -76 41q-54 0 -112 -44q-60 -47 -84 -116q-8 -27 -10 -43q-8 -46 0 -74q10 -32 34 -45
q16 -11 46 -11h5q29 0 58 12q26 11 52 36q51 47 95 136q34 70 67 170q53 174 69 224q11 30 38 27q13 -1 19 -11.5t2 -22.5q-46 -160 -68 -226q-55 -189 -71 -288q-4 -18 -6 -34.5t-1.5 -23t0.5 -9.5q5 -10 1.5 -22.5t-13.5 -19.5q-11 -8 -23.5 -7t-19.5 11q-14 36 0 105
q0 2 0.5 4t0.5 3l-5 -4q-54 -75 -120 -103q-43 -19 -86 -19z" />
    <glyph glyph-name="e" unicode="e" horiz-adv-x="478" 
d="M76 47q-47 50 -33 133q8 43 28 81q47 91 136 142q77 42 154 42q36 0 62 -10q29 -9 45 -32q11 -16 11 -37q0 -8 -2 -18q-13 -70 -90 -122q-83 -56 -213 -69q-12 -1 -20.5 7.5t-7.5 21.5q1 12 10.5 21.5t22.5 10.5q112 11 180 56q49 35 57 74q2 16 -11 24.5t-25 10t-30 1.5
q-60 0 -121 -34q-66 -37 -103 -108q-18 -35 -22 -62q-7 -54 21 -87q28 -31 86 -31q97 0 194 86q10 10 23 10.5t21 -7.5q7 -10 5 -22.5t-12 -21.5q-119 -107 -241 -107q-81 0 -125 47z" />
    <glyph glyph-name="f" unicode="f" horiz-adv-x="293" 
d="M345 442q13 -1 20 -10t5 -21q-2 -13 -12 -22t-23 -9h-3q-48 0 -103 -13q-18 -6 -27 -8q-3 -8 -5.5 -16.5t-6 -19.5t-5.5 -18q-27 -94 -73 -276q-3 -13 -13 -21t-22 -8q-1 0 -2 1q-13 1 -20 10.5t-4 22.5q44 173 79 293l-5 -3q-8 -6 -19 -6q-15 0 -23 13q-6 10 -1.5 22
t16.5 20q15 11 54 29q27 81 52 131q21 44 50 78q15 17 36 31q11 9 44 24q13 5 24 -0.5t14 -17.5q2 -12 -5 -23.5t-20 -15.5q-23 -9 -41 -25q-19 -19 -36 -50q-20 -35 -47 -109q66 17 119 17h3z" />
    <glyph glyph-name="g" unicode="g" 
d="M-27 -276h-23q-12 0 -19 9.5t-5 21.5q2 13 12.5 22t22.5 8h22q115 0 190 29q70 25 119 80q33 33 58 85q18 34 43 98q-105 -77 -203 -77q-56 0 -96 27q-38 27 -51 77q-7 32 -1 73q6 36 23 70q42 95 129 149q82 50 161 50q47 0 76 -16q35 -16 49 -40v1q5 19 10 30
q4 12 15 19.5t23 5.5q11 -2 18 -11.5t3 -20.5q-52 -202 -65 -247q-34 -118 -73 -196q-36 -68 -66 -103q-52 -62 -126 -98q-101 -46 -246 -46zM221 346q-67 -43 -100 -115q-12 -26 -17 -54q-7 -55 17 -85q28 -31 80 -31q90 0 193 89q9 8 19 25q15 30 20 44q8 20 32 107
q0 2 3 11q-26 -12 -40 9q-10 18 -31 28q-22 11 -53 11q-62 0 -123 -39z" />
    <glyph glyph-name="h" unicode="h" horiz-adv-x="480" 
d="M55 0h-2q-13 1 -19 10.5t-3 22.5q80 314 147 489q22 58 43 96q9 19 24 37q9 11 22 14t21 -4q23 -15 3 -43q-5 -5 -17 -24l-21 -45q-18 -41 -49 -132q-2 -4 -34 -107q40 49 85 79q70 47 136 47q40 0 66 -19q61 -53 34 -194q-16 -89 -57 -201q-4 -13 -15 -20t-24 -5
q-12 2 -17.5 12t-1.5 23q107 292 34 336q-12 8 -29 7q-49 -2 -96 -35q-41 -25 -77 -72q-78 -96 -116 -244q-4 -11 -14.5 -19.5t-22.5 -8.5z" />
    <glyph glyph-name="i" unicode="i" horiz-adv-x="194" 
d="M207 440q11 -13 5 -28q-9 -26 -47 -156q-52 -177 -39 -208q4 -10 0 -22.5t-15 -19.5q-8 -6 -19 -6q-26 0 -30 34q-3 25 6 76q9 52 37 153l30 98q-10 -6 -22 -4.5t-18 11.5q-6 9 -2.5 22t15.5 21q37 24 71 34q17 6 28 -5zM259 604q7 -9 4.5 -21.5t-13.5 -21.5
q-21 -21 -27 -26q-13 -11 -25 -11t-19 7q-8 7 -7 20t11 23q3 4 9 10q11 11 15.5 15t15.5 11t19.5 5.5t16.5 -11.5z" />
    <glyph glyph-name="j" unicode="j" horiz-adv-x="193" 
d="M181 442q16 2 24.5 -8t4.5 -26q-17 -56 -45.5 -156.5t-41.5 -145.5q-46 -155 -90 -231q-42 -73 -106.5 -116t-142.5 -39q-13 0 -19.5 8.5t-4.5 21.5t12 22t23 9q49 0 85 17q35 17 63.5 50t44 63.5t33.5 76.5q25 61 53 161q11 35 31.5 106.5t30.5 106.5q-12 -6 -23.5 -3.5
t-16.5 11.5q-6 10 -1.5 23t16.5 20q41 25 70 29zM257 601q7 -10 4.5 -22.5t-13.5 -20.5q-1 -2 -6.5 -7t-12 -11.5l-7.5 -7.5q-12 -11 -26 -11q-11 0 -18 7q-8 7 -7.5 19.5t10.5 22.5q13 17 33 32q11 9 23 8.5t20 -9.5z" />
    <glyph glyph-name="k" unicode="k" horiz-adv-x="453" 
d="M348 333q-64 -37 -110 -80q10 -4 16 -8q27 -13 66 -45q82 -72 101 -157q3 -12 -4 -24t-20 -17q-6 -2 -11 -2q-22 0 -25 19q-15 60 -64 110.5t-108 72.5q-67 -80 -98 -175q-8 -26 -35 -26h-3q-12 2 -18.5 11t-3.5 22q86 330 148 489q24 61 43 96q12 23 24 37q9 11 22 14
t21 -4q10 -7 10.5 -19.5t-8.5 -23.5q-6 -8 -16 -25q-16 -32 -21 -45q-18 -39 -49 -131q-41 -127 -56 -180q9 11 45 47q84 79 193 126q53 23 94 30q13 3 22.5 -4t8.5 -20q0 -13 -9.5 -23.5t-22.5 -12.5q-13 -1 -53 -15q-41 -16 -79 -37z" />
    <glyph glyph-name="l" unicode="l" horiz-adv-x="248" 
d="M53 117l3 15q46 185 130 415q22 60 43 101q14 28 41 20q11 -4 15.5 -15t-0.5 -23q-21 -43 -40 -96l-48 -132q-57 -176 -80 -275q-6 -30 1.5 -46t15 -18t17.5 -2h1q15 0 37 5q13 3 22.5 -3.5t10.5 -18.5q1 -13 -7 -24t-21 -13q-25 -7 -52 -7q-61 -2 -79.5 28.5t-9.5 88.5z
" />
    <glyph glyph-name="m" unicode="m" horiz-adv-x="760" 
d="M55 0h-2q-13 1 -19 10.5t-3 22.5q61 246 114 389q13 29 40 24q28 -7 18 -36q-2 -9 -8.5 -25.5t-7.5 -20.5q22 24 43 37q52 38 113 42h11q35 -3 57.5 -16.5t31 -36t10.5 -37.5t2 -37v-17q36 59 68 88q34 34 82 50t93.5 2t63.5 -62q15 -63 0 -127q-16 -90 -67 -225
q-4 -13 -15.5 -19.5t-24.5 -4.5q-12 3 -17 13.5t-1 22.5q49 129 64 213q8 47 5 73q-1 28 -11 41q-15 19 -44 19q-35 -1 -65 -19t-54.5 -52t-37 -57t-31.5 -62q-25 -53 -74 -169q-11 -28 -40 -23q-12 3 -17 13t-1 22q39 110 54 191q10 44 7.5 73.5t-6.5 46t-15 24.5t-16.5 10
t-11.5 2h-7q-39 -4 -77 -30q-35 -24 -66 -72q-60 -91 -101 -253q-4 -11 -14.5 -19.5t-22.5 -8.5z" />
    <glyph glyph-name="n" unicode="n" horiz-adv-x="491" 
d="M57 0h-3q-13 1 -19.5 10.5t-2.5 22.5q54 221 110 387q4 12 15.5 19.5t23.5 5.5q13 -2 18.5 -12t1.5 -23q-6 -16 -26 -79q33 38 74 67q46 28 90 38t71 5.5t46 -16.5q26 -18 36 -55t8.5 -68t-7.5 -75q-13 -75 -58 -201q-5 -13 -16 -20t-24 -5q-12 2 -17.5 12t-1.5 23
q41 112 55 191q7 40 7 85q-7 80 -77 71q-45 -8 -83 -33q-41 -29 -75 -74q-73 -96 -111 -248q-3 -11 -13.5 -19.5t-21.5 -8.5z" />
    <glyph glyph-name="o" unicode="o" horiz-adv-x="477" 
d="M111 31q-48 35 -65 88q-25 103 59 215q31 38 78 68q79 46 182 48q29 0 62 -6q12 -1 18 -11.5t2 -23.5q-2 -6 -14 -18q4 -3 18 -19q32 -51 35 -103.5t-17 -93.5t-44 -70.5t-49 -46.5q-77 -56 -155 -58h-5q-62 0 -105 31zM269 377l-28 -10q-56 -23 -89 -66q-27 -34 -40 -74
q-2 -5 -7 -26q-6 -29 2 -56q7 -22 25 -44q37 -40 94 -40h3q58 2 113 44q127 120 59 225q-31 37 -80 37q-11 0 -23 -3q-22 -3 -29 13z" />
    <glyph glyph-name="p" unicode="p" horiz-adv-x="541" 
d="M-3 -285h-2q-12 1 -19 10t-5 21q43 200 87 357q46 173 103 315q4 13 16 19.5t25 3.5q12 -3 17 -13.5t0 -22.5q-4 -8 -11 -27t-12 -29q1 1 12.5 11.5t17.5 15.5q81 65 177 65h5q59 -3 97 -32q35 -28 43 -76q5 -33 -1 -65q-12 -71 -68 -139q-57 -70 -141 -105
q-62 -24 -125 -24q-35 0 -69 6q-12 3 -17.5 13t-1.5 23q12 28 41 25q30 -6 58 -6q76 0 142 41q59 39 92 96q20 33 27 70q6 35 -4 62q-11 28 -37 40q-22 9 -48 9h-4q-132 -6 -212 -151q-24 -43 -46 -105q-24 -66 -49 -162q-11 -42 -28.5 -116.5t-23.5 -100.5
q-3 -13 -13.5 -21t-22.5 -8z" />
    <glyph glyph-name="q" unicode="q" horiz-adv-x="532" 
d="M280 -272q-19 16 -5 38q11 19 37 75q10 23 46 118q13 38 38 120q-104 -79 -205 -79q-56 0 -95 27q-39 26 -52 77q-7 32 -1 73q6 36 23 70q43 96 130 149q79 50 160 50q94 -5 125 -56v1l10 30q4 12 15 19t24 6q11 -2 17.5 -11.5t3.5 -20.5q-5 -16 -26 -99q-6 -27 -15 -53
q-76 -286 -140 -432q29 11 76 20q13 2 22 -5.5t8 -20.5q0 -13 -9.5 -23t-22.5 -12q-39 -6 -73 -21q-26 -12 -52 -35q-9 -9 -23 -9q-9 0 -16 4zM223 346q-74 -49 -105 -134q-31 -82 7 -125q25 -28 77 -26q91 0 194 89q14 17 18 25q29 69 51 145q0 4 1 6q0 2 3 11
q-25 -12 -39 9q-10 16 -31 28q-24 11 -54 11q-61 0 -122 -39z" />
    <glyph glyph-name="r" unicode="r" horiz-adv-x="364" 
d="M58 0h-3q-13 1 -20 10.5t-3 22.5q51 210 111 387q3 12 15 19.5t24 4.5q12 -1 18 -11.5t2 -23.5q-4 -11 -26 -76q27 30 38 38q44 41 93 62q33 14 59 14q28 0 50 -15q17 -13 23 -31.5t4 -29.5q-5 -23 -17.5 -32.5t-23.5 -8t-18 8.5q-13 15 -3 33q-6 9 -25.5 10t-32.5 -5
q-36 -14 -71 -47q-35 -32 -65 -77q-58 -89 -95 -225q-2 -12 -12 -20t-22 -8z" />
    <glyph glyph-name="s" unicode="s" horiz-adv-x="426" 
d="M43 114q0 1 2 11q3 12 14.5 19.5t24.5 6.5q13 -2 18.5 -12t1.5 -22v-3q0 -18 23 -34q33 -19 80 -19q36 0 63 10q33 14 48 30q14 17 17.5 31t2 22t-14 17t-16.5 10.5t-20 8.5q-106 34 -130 64q-31 33 -23.5 68.5t34.5 65t74.5 47.5t97.5 14q38 0 68 -10t41.5 -19t13.5 -14
q5 -10 0.5 -22.5t-15.5 -19.5q-4 -6 -14.5 -3.5t-16.5 4.5t-16.5 8t-13.5 7q-26 8 -58 8q-31 0 -60 -9q-32 -12 -49.5 -29.5t-16.5 -30.5t7 -22q10 -12 46 -26q8 -4 24 -10t19 -7q35 -14 59 -26q41 -22 48 -55t-7 -59.5t-39 -50.5q-70 -63 -163 -63q-154 10 -154 114z" />
    <glyph glyph-name="t" unicode="t" horiz-adv-x="293" 
d="M329 445q13 -1 19.5 -9.5t3.5 -21.5q-1 -13 -11.5 -21.5t-23.5 -8.5h-3q-45 0 -103 -14q-2 0 -6 -1.5t-7 -2.5q-44 -120 -71 -238q-10 -42 -0.5 -56.5t35.5 -10.5q27 3 37 5q13 3 23 -3.5t10 -18.5q1 -13 -7 -24t-20 -13q-27 -7 -53 -7q-115 0 -85 132q18 81 59 205
q-11 -5 -19 -10q-7 -5 -18 -5q-15 0 -24 12q-11 27 16 43q30 20 70 35q52 144 99 236q7 12 19 18t23 2t14.5 -15t-1.5 -24q-41 -83 -84 -196q55 12 104 12h4z" />
    <glyph glyph-name="u" unicode="u" horiz-adv-x="475" 
d="M351 0q-13 0 -20 9t-5 22q4 21 12 57q-32 -30 -50 -42q-61 -46 -129 -46q-32 0 -63 17q-32 20 -44 67t-10.5 79.5t7.5 63.5q14 83 56 194q5 13 17 20t23 4q11 -2 16.5 -13t1.5 -23q-41 -108 -53 -182q-8 -65 -3 -98.5t15 -45.5q16 -21 47 -21q23 0 45 9q21 6 44 22
q34 25 66 66q30 39 48 82q16 36 23 54q15 52 39 121q4 12 16 19.5t24 5.5q12 -1 17.5 -11.5t1.5 -23.5q-31 -97 -39 -121q-53 -165 -68 -254v-1q-2 -13 -12 -21.5t-23 -8.5z" />
    <glyph glyph-name="v" unicode="v" horiz-adv-x="434" 
d="M154 0q-54 2 -87 98q-30 102 -6 237q6 41 18 82q5 13 16 21t23 6q13 -1 19 -11t2 -22q-9 -32 -16 -76q-14 -82 -8 -147q4 -50 24 -95q27 -51 88 -4q36 25 83 82q92 119 123 245q3 13 13.5 21t23.5 7t19.5 -10t2.5 -22q-20 -91 -78 -187q-47 -85 -118 -152
q-43 -41 -89 -62q-27 -11 -53 -11z" />
    <glyph glyph-name="w" unicode="w" horiz-adv-x="686" 
d="M340 17q-22 16 -30 49q-4 12 -6 37q-77 -104 -165 -101q-36 2 -59 24.5t-30 56.5t-7 66t6 64q16 90 62 209q5 12 16.5 19t23.5 4q12 -2 17 -13t0 -23q-42 -108 -58 -196q-9 -54 -6 -86q1 -27 13 -45q5 -8 13 -13q22 -13 51 2q19 7 36 21q26 22 47 53q16 23 38 72
q1 3 34 93q12 46 36 111q3 11 14.5 18.5t24.5 5.5q11 -2 16.5 -12t1.5 -22l-33 -108q-13 -43 -23 -96q-9 -51 -7 -86q1 -105 113 -28q30 22 50 46q23 30 37 59q19 37 23 49q17 58 56 173q4 12 16 19t24 5q11 -2 17 -12t2 -23q-4 -12 -17.5 -58t-23.5 -74q-5 -18 -15 -41
q-41 -139 -52 -205v-1q-2 -13 -12 -21.5t-23 -8.5t-20 9t-5 22q3 15 9 43q-53 -47 -86.5 -61t-66.5 -13q-27 0 -52 17z" />
    <glyph glyph-name="x" unicode="x" horiz-adv-x="562" 
d="M299 22q-29 19 -41 59q-6 36 2 67l-56 -43q-49 -42 -139 -98q-11 -8 -23.5 -5.5t-18.5 12.5q-11 25 15 43q58 37 132 93q30 25 34 29q57 53 80 95q15 24 18 45q7 67 -61 67q-36 0 -71 -25q-10 -8 -22.5 -7.5t-19.5 10.5q-7 9 -4 22t14 22q52 39 114 39q38 0 69 -18
q29 -18 40 -55q10 -46 -2 -76h1q71 71 210 146q30 12 40 -12q4 -10 -1.5 -22.5t-16.5 -18.5q-86 -48 -196 -135q-36 -35 -57 -71q-18 -27 -21 -50q-2 -73 67 -73q45 0 101 32q11 7 22.5 4t16.5 -13q5 -11 0 -23.5t-17 -19.5q-72 -41 -134 -41q-45 0 -75 21z" />
    <glyph glyph-name="y" unicode="y" 
d="M-92 -248q2 13 11.5 22t22.5 9q119 0 195 27q74 24 124 76q69 71 108 186q-34 -26 -74 -45q-58 -26 -107 -26q-49 -1 -82.5 14.5t-48 38.5t-19.5 53.5t-2.5 54.5t8.5 46q16 60 34 113.5t28 76.5l9 24q5 13 17.5 19.5t23.5 2.5q12 -3 16.5 -13.5t-0.5 -23.5
q-5 -12 -11.5 -28.5t-8.5 -20.5q-25 -74 -40 -124q-7 -28 -10 -51.5t-2 -40.5t5.5 -30.5t10 -21.5t14.5 -14t16 -9t17 -4.5t15.5 -1.5t13.5 1h7q39 3 77 20t56 30.5t44 35.5q9 9 19 25q30 48 67 216l9 30q4 12 15.5 19.5t22.5 5.5q12 -1 18 -11t3 -21q-35 -140 -69 -256
q-38 -119 -79 -198q-30 -55 -71 -101q-46 -48 -97 -78t-107.5 -41t-88 -13.5t-86.5 -2.5q-13 0 -19.5 8.5t-4.5 21.5z" />
    <glyph glyph-name="z" unicode="z" horiz-adv-x="529" 
d="M23 13q-8 18 6 35q103 96 159 140q108 88 222 171l43 32q-57 5 -102 5q-105 0 -180 -23q-12 -3 -22 3t-12 18q-2 13 5.5 23.5t21.5 14.5q81 25 198 25q86 0 184 -14q22 -2 22 -23q2 -20 -18 -32q-10 -6 -65 -44q-72 -53 -88 -65q-107 -79 -193 -150q-47 -39 -62 -53
q71 11 152 11q65 0 146 -9q13 -1 19 -11t2 -23t-15 -20.5t-24 -6.5q-68 8 -139 8q-125 0 -230 -24q-23 -5 -30 12z" />
    <glyph glyph-name="braceleft" unicode="{" horiz-adv-x="271" 
d="M287 622q-19 -15 -33 -44q-9 -25 -11 -37q-4 -20 -8 -62q-6 -46 -10 -68q-11 -44 -24 -67q-20 -37 -51 -62q-1 -1 -3 -2.5t-3 -2.5l4 -3q15 -22 21 -41q11 -37 0 -88q-6 -29 -19 -68q-17 -55 -19 -64q-6 -29 -1 -52q3 -25 26 -41q16 -15 47 -25q10 -4 13 -15t-2 -23
q-12 -22 -32 -22q-2 0 -4.5 0.5t-3.5 0.5q-53 18 -81 51q-24 35 -24 75q-1 12 4 51q6 29 20 70q16 51 18 62q6 25 4 46q-5 22 -17 37q-9 13 -26 22q-14 8 -11 27v1q5 20 24 27q29 16 35 22q16 12 23 24q14 21 24 60q2 8 9 61q0 33 9 69q8 41 30 77q25 42 71 69q36 20 73 32
q11 4 20.5 -2.5t10.5 -18.5t-6.5 -23t-19.5 -15q-51 -15 -77 -38z" />
    <glyph glyph-name="bar" unicode="|" horiz-adv-x="227" 
d="M223 727q12 0 18.5 -8t4.5 -20l-149 -834q-1 -12 -10.5 -20t-21.5 -8t-19 8t-5 20l149 834q1 12 11 20t22 8z" />
    <glyph glyph-name="braceright" unicode="}" horiz-adv-x="311" 
d="M44 -63q19 15 33 44q9 25 11 37q4 20 8 62q6 46 10 68q11 44 24 67q20 37 51 62q1 1 3 2.5t3 2.5l-4 3q-15 22 -21 41q-11 37 0 88q6 29 19 68q17 55 19 64q6 29 1 52q-3 25 -26 41q-16 15 -47 25q-10 4 -13 15t2 23q12 22 32 22q2 0 4.5 -0.5t3.5 -0.5q53 -18 81 -51
q24 -34 24 -75q1 -12 -4 -51q-6 -29 -20 -70q-16 -51 -18 -62q-6 -25 -4 -46q5 -22 17 -37q9 -13 26 -22q14 -8 11 -27v-1q-5 -20 -24 -27q-29 -16 -35 -22q-16 -12 -23 -24q-14 -21 -24 -60q-2 -8 -9 -61q0 -33 -9 -69q-8 -41 -30 -77q-25 -42 -71 -69q-36 -20 -73 -32
q-11 -4 -20.5 2.5t-10.5 18.5t6.5 23t19.5 15q51 15 77 38z" />
    <glyph glyph-name="asciitilde" unicode="~" horiz-adv-x="619" 
d="M530 346q11 5 21.5 2t14.5 -13q10 -22 -15 -38q-45 -25 -85 -37q-34 -10 -67 -10q-44 0 -86 20q-61 28 -65 29q-17 8 -44 8q-49 0 -116 -33q-11 -5 -21.5 -2t-14.5 13q-4 9 1 20.5t16 17.5q82 41 145 41q47 0 87 -21q56 -27 64 -30q20 -7 43 -7q25 0 50 8q32 9 72 32z
" />
    <glyph glyph-name="uni00A0" unicode="&#xa0;" horiz-adv-x="0" 
 />
    <glyph glyph-name="exclamdown" unicode="&#xa1;" horiz-adv-x="241" 
d="M227 335h2q13 -1 19 -11t3 -23q-57 -209 -124 -387q-20 -52 -38 -92q-16 -30 -43 -20q-11 3 -14.5 14t2.5 24q23 51 35 86q31 87 43 121q51 149 80 260q3 12 13 20t22 8zM265 469h1q13 -1 20 -10t4 -21q-3 -13 -5.5 -23t-3.5 -15l-1 -4q-5 -13 -17 -20t-24 -5
q-27 7 -18 36q5 23 8 33q2 12 13 20.5t23 8.5z" />
    <glyph glyph-name="sterling" unicode="&#xa3;" horiz-adv-x="645" 
d="M658 577q10 -28 4 -63q0 -1 -0.5 -3t-0.5 -4q-3 -13 -13.5 -21.5t-23.5 -7.5q-13 0 -20.5 9.5t-4.5 22.5q1 1 1 4q5 21 -1 35t-18 26q-25 25 -72 25q-33 0 -62 -15q-32 -14 -56 -44q-16 -21 -29 -51l-47 -127h67q13 0 20.5 -8.5t5.5 -21.5t-13 -21.5t-24 -8.5h-80
q-9 -23 -25.5 -67t-24.5 -63l-12 -30q2 -1 12 -5.5t15 -7.5q11 -5 31 -16t36.5 -19t31.5 -13q36 -13 65 -13q22 0 46 9q25 9 52 33q10 10 23 10t20 -9q8 -8 6 -21t-12 -22q-34 -31 -74 -48q-36 -13 -72 -13q-37 0 -64 10q-30 9 -58 21q-11 6 -28.5 15.5t-31 16.5t-25.5 12
q-14 -24 -30 -43q-18 -19 -44 -33q-14 -7 -30 -7q-15 0 -29 7q-12 6 -18 17q-15 22 -9 50q3 25 20 45q20 22 50 35q20 8 42 8q13 0 19 -1l1 3q2 4 2 6q22 51 42 106q2 4 5 13.5t5 13.5h-26q-13 0 -20 8.5t-5 21.5t12.5 21.5t23.5 8.5h39l53 141q15 39 40 70q20 26 53 49
q56 37 122 37q50 0 84 -20q41 -25 54 -63zM121 70q12 10 25 31h-3q-11 0 -15 -3q-15 -7 -21 -14q-4 -6 -4 -10q-1 0 -1 -4l1 -4q0 -1 1 -2q2 -1 1 -2h3q1 0 4 1q4 2 9 7z" />
    <glyph glyph-name="yen" unicode="&#xa5;" horiz-adv-x="497" 
d="M447 184q11 0 18 -8t5 -20q-1 -12 -11 -20t-21 -8h-181q-22 -51 -43 -109q-8 -19 -28 -19q-7 0 -10 1q-12 4 -17 15.5t-1 22.5q22 60 34 89h-122q-12 0 -19 8t-5 20t11.5 20t21.5 8h138q28 62 54 109l-11 9h-160q-12 0 -18.5 8.5t-4.5 19.5q2 12 11.5 20.5t21.5 8.5h95
q-23 26 -38 51q-46 70 -75 150q-16 48 -21 86q-2 12 5.5 21.5t19.5 11.5t21.5 -5.5t11.5 -19.5q5 -36 19 -74q15 -44 41 -91q42 -80 96 -130h22q42 70 50 81q85 136 167 233q8 10 20.5 11t21.5 -7t10 -20t-7 -22q-83 -98 -162 -226l-31 -50h102q11 0 18 -8.5t5 -20.5
q-2 -11 -12 -19.5t-21 -8.5h-125q-29 -53 -61 -118h165z" />
    <glyph glyph-name="uni00AD" unicode="&#xad;" horiz-adv-x="366" 
d="M330 224h-256l9 50h256z" />
    <glyph glyph-name="onequarter" unicode="&#xbc;" horiz-adv-x="600" 
d="M493 679q9 -4 11.5 -15t-4.5 -22l-397 -624q-10 -16 -29 -16q-5 0 -11 2q-23 12 -8 38l398 624q15 25 40 13zM531 195q23 -4 16 -25q-7 -23 -28 -20q-14 2 -22 2l-34 -131q-5 -21 -25 -21h-3q-21 2 -16 25l33 128q-62 0 -117 -15q-38 -6 -46 13q-6 16 3 41q2 7 9 18
q4 7 13 20t13 19q31 42 66 77q28 28 40 37q18 16 32 0q10 -13 -6 -32q-7 -5 -48 -46q-39 -46 -53 -65q-19 -27 -22 -36v-1q60 15 129 15h1q34 106 62 160q9 21 30 14q8 -2 11 -11t-2 -17q-28 -58 -56 -147zM114 303q-10 0 -15.5 7t-3.5 16q23 94 48 177q4 11 16.5 50
t19.5 57q-14 -10 -25 -22q-7 -7 -16.5 -8t-15.5 5q-15 14 2 31q30 32 71 52q6 4 20 9q15 4 21 -4q9 -11 3 -22q-22 -55 -52 -154q-26 -84 -47 -173q-4 -21 -26 -21z" />
    <glyph glyph-name="onehalf" unicode="&#xbd;" horiz-adv-x="626" 
d="M493 679q9 -4 11.5 -15t-4.5 -22l-397 -624q-10 -16 -29 -16q-5 0 -11 2q-23 12 -8 38l398 624q15 25 40 13zM303 0q-16 1 -20 9.5t3 21.5q16 26 43 50q18 17 51 37q6 4 44 26t56 35q28 19 48 49q18 32 21 48q5 23 -10 37q-15 13 -44 13q-27 0 -47 -10q-26 -11 -40 -28
q-11 -13 -14 -26q-9 -22 -30 -19q-9 2 -13.5 9t-0.5 17q9 24 26 45q14 17 38 32q44 25 89 25q29 0 55 -12q44 -27 36 -83q-12 -65 -73 -117q-5 -4 -53 -38q-8 -5 -29.5 -16.5t-31.5 -17.5t-26 -17t-28 -23q54 2 96 2q46 0 65 -1q10 -1 15 -8t3 -16q-7 -23 -28 -21
q-19 1 -63 1q-49 0 -137 -4h-1zM114 303q-10 0 -15.5 7t-3.5 16q23 94 48 177q4 11 16.5 50t19.5 57q-14 -10 -25 -22q-7 -7 -16.5 -8t-15.5 5q-14 15 2 31q30 32 71 52q6 4 20 9q15 4 21 -4q9 -9 3 -22q-22 -55 -52 -154q-26 -84 -47 -173q-4 -21 -26 -21z" />
    <glyph glyph-name="threequarters" unicode="&#xbe;" horiz-adv-x="686" 
d="M578 679q9 -4 11.5 -15t-4.5 -22l-397 -624q-10 -16 -29 -16q-3 0 -11 2q-10 5 -12 16.5t5 21.5l398 624q6 11 17.5 14.5t21.5 -1.5zM616 195q23 -4 16 -25q-2 -10 -10.5 -16t-17.5 -4q-14 2 -21 2q-9 -32 -35 -131q-5 -21 -25 -21h-2q-22 2 -17 25q21 86 34 128
q-52 0 -118 -15q-24 -5 -37.5 4t-10.5 32q2 9 5 18q19 51 102 134q24 26 39 37q18 16 32 0q3 -7 4 -11t-3.5 -11t-8 -10.5t-10 -9.5t-9.5 -9q-4 -4 -8.5 -8t-10 -10t-8.5 -9q-39 -46 -53 -65q-19 -27 -22 -36v-1q60 15 129 15h1q34 106 62 160q4 9 13 13t17 1q8 -2 11 -11
t-1 -17q-28 -55 -57 -147zM306 394q-22 -28 -50 -42q-71 -40 -185 -46h-1q-10 0 -15.5 6t-3.5 15q1 9 8.5 16t16.5 8q85 4 134 26q37 14 61 41t5 52q-18 23 -67 7q-23 -3 -25 16q-3 19 19 28q16 4 24 5q32 10 50 20q18 9 29.5 25.5t7.5 30.5q-8 31 -63 31q-46 0 -93 -35
q-21 -12 -31 4q-12 16 7 31q63 45 125 45q34 0 62 -14q47 -26 39 -78q-8 -44 -58 -74q37 -24 27 -70q-5 -27 -23 -48z" />
    <glyph glyph-name="questiondown" unicode="&#xbf;" horiz-adv-x="470" 
d="M364 334q10 -6 12 -18t-6 -24q-46 -68 -114 -131q-88 -83 -95 -91q-26 -30 -43 -66q-9 -17 -13 -41t1 -44q6 -20 19 -32q30 -27 78 -27q36 0 73 17q39 21 63 52q21 27 30 57q4 13 15.5 20.5t23.5 4.5q13 -1 18.5 -11.5t1.5 -23.5q-16 -43 -41 -77q-26 -34 -59 -57
q-65 -43 -136 -43q-54 0 -90 23q-41 24 -56 70q-10 35 -3 71q4 20 12 40.5t16.5 36.5t20.5 33t21.5 28.5t22.5 24.5t19.5 19t17 15.5t11.5 10.5q5 4 19 17.5t20.5 19.5t19 18t20.5 21t18.5 21t20 24.5t18.5 26.5q12 18 31 18q7 0 13 -3zM397 460h3q13 -2 19.5 -11.5
t2.5 -22.5l-5 -20q-4 -13 -15 -20.5t-24 -6.5q-12 1 -18.5 10.5t-3.5 22.5l7 20q7 28 34 28z" />
    <glyph glyph-name="Agrave" unicode="&#xc0;" horiz-adv-x="593" 
d="M654 389q12 -1 20.5 -9.5t7.5 -20.5t-9.5 -20.5t-20.5 -7.5h-23q-43 0 -83 -4q-26 -156 -73 -306q-5 -21 -27 -21q-6 0 -9 1q-11 4 -17 14.5t-2 22.5q40 130 68 282q-169 -22 -298 -74q-50 -117 -84 -226q-4 -11 -14.5 -17t-22.5 -2q-11 4 -17 15t-2 22q31 96 61 170
l-32 -21q-6 -5 -17 -5q-15 0 -24 12q-7 10 -5 21.5t12 18.5q42 31 101 56q94 211 192 313q73 71 139 71q28 0 47 -16q16 -12 27 -38q16 -37 16 -106q0 -51 -10 -128q39 3 74 3h25zM222 320q129 44 274 60q11 77 11 134q0 44 -7 68q-5 23 -15 31q-4 3 -10 3q-43 0 -97 -54
q-52 -54 -108 -151q-27 -48 -48 -91zM385 838q-7 9 -4 22t15 21q24 19 44 -4q37 -43 63 -101q5 -11 0 -23.5t-17 -19.5q-7 -4 -17 -4q-16 0 -24 13q-54 88 -60 96z" />
    <glyph glyph-name="Aacute" unicode="&#xc1;" horiz-adv-x="593" 
d="M654 389q12 -1 20.5 -9.5t7.5 -20.5t-9.5 -20.5t-20.5 -7.5h-23q-43 0 -83 -4q-26 -156 -73 -306q-5 -21 -27 -21q-6 0 -9 1q-11 4 -17 14.5t-2 22.5q40 130 68 282q-169 -22 -298 -74q-50 -117 -84 -226q-4 -11 -14.5 -17t-22.5 -2q-11 4 -17 15t-2 22q31 96 61 170
l-32 -21q-6 -5 -17 -5q-15 0 -24 12q-7 10 -5 21.5t12 18.5q42 31 101 56q94 211 192 313q73 71 139 71q28 0 47 -16q16 -12 27 -38q16 -37 16 -106q0 -51 -10 -128q39 3 74 3h25zM222 320q129 44 274 60q11 77 11 134q0 44 -7 68q-5 23 -15 31q-4 3 -10 3q-43 0 -97 -54
q-52 -54 -108 -151q-27 -48 -48 -91zM510 834q-29 -26 -94 -91q-14 -11 -29 -11q-13 3 -16 5q-9 8 -9.5 20.5t8.5 22.5q45 55 98 96q12 9 25 9t20 -8q9 -9 7.5 -21.5t-10.5 -21.5z" />
    <glyph glyph-name="Acircumflex" unicode="&#xc2;" horiz-adv-x="593" 
d="M654 389q12 -1 20.5 -9.5t7.5 -20.5t-9.5 -20.5t-20.5 -7.5h-23q-43 0 -83 -4q-26 -156 -73 -306q-5 -21 -27 -21q-6 0 -9 1q-11 4 -17 14.5t-2 22.5q40 130 68 282q-169 -22 -298 -74q-50 -117 -84 -226q-4 -11 -14.5 -17t-22.5 -2q-11 4 -17 15t-2 22q31 96 61 170
l-32 -21q-6 -5 -17 -5q-15 0 -24 12q-7 10 -5 21.5t12 18.5q42 31 101 56q94 211 192 313q73 71 139 71q28 0 47 -16q16 -12 27 -38q16 -37 16 -106q0 -51 -10 -128q39 3 74 3h25zM222 320q129 44 274 60q11 77 11 134q0 44 -7 68q-5 23 -15 31q-4 3 -10 3q-43 0 -97 -54
q-52 -54 -108 -151q-27 -48 -48 -91zM515 742l-42 68l-64 -64q-14 -11 -29 -11q-13 3 -16 5q-9 8 -9.5 20.5t8.5 22.5q45 55 98 96q8 6 14 7q5 2 15 2q10 -2 13 -5l7 -6q37 -43 63 -101q5 -11 0 -23.5t-17 -19.5q-7 -4 -17 -4q-16 0 -24 13z" />
    <glyph glyph-name="Atilde" unicode="&#xc3;" horiz-adv-x="593" 
d="M654 389q12 -1 20.5 -9.5t7.5 -20.5t-9.5 -20.5t-20.5 -7.5h-23q-43 0 -83 -4q-26 -156 -73 -306q-5 -21 -27 -21q-6 0 -9 1q-11 4 -17 14.5t-2 22.5q40 130 68 282q-169 -22 -298 -74q-50 -117 -84 -226q-4 -11 -14.5 -17t-22.5 -2q-11 4 -17 15t-2 22q31 96 61 170
l-32 -21q-6 -5 -17 -5q-15 0 -24 12q-7 10 -5 21.5t12 18.5q42 31 101 56q94 211 192 313q73 71 139 71q28 0 47 -16q16 -12 27 -38q16 -37 16 -106q0 -51 -10 -128q39 3 74 3h25zM222 320q129 44 274 60q11 77 11 134q0 44 -7 68q-5 23 -15 31q-4 3 -10 3q-43 0 -97 -54
q-52 -54 -108 -151q-27 -48 -48 -91zM371 746q-24 -18 -38.5 0t4.5 38q50 44 88 44q26 0 63 -29q17 -15 29 -15q17 0 42 24q18 15 34.5 0t-0.5 -36q-41 -38 -76 -38q-27 0 -60 27l1 -1q-22 18 -33 18q-19 0 -54 -32z" />
    <glyph glyph-name="Adieresis" unicode="&#xc4;" horiz-adv-x="593" 
d="M654 389q12 -1 20.5 -9.5t7.5 -20.5t-9.5 -20.5t-20.5 -7.5h-23q-43 0 -83 -4q-26 -156 -73 -306q-5 -21 -27 -21q-6 0 -9 1q-11 4 -17 14.5t-2 22.5q40 130 68 282q-169 -22 -298 -74q-50 -117 -84 -226q-4 -11 -14.5 -17t-22.5 -2q-11 4 -17 15t-2 22q31 96 61 170
l-32 -21q-6 -5 -17 -5q-15 0 -24 12q-7 10 -5 21.5t12 18.5q42 31 101 56q94 211 192 313q73 71 139 71q28 0 47 -16q16 -12 27 -38q16 -37 16 -106q0 -51 -10 -128q39 3 74 3h25zM222 320q129 44 274 60q11 77 11 134q0 44 -7 68q-5 23 -15 31q-4 3 -10 3q-43 0 -97 -54
q-52 -54 -108 -151q-27 -48 -48 -91zM327 786q2 17 14.5 28.5t28.5 11.5q17 0 27.5 -12t9.5 -28q-2 -17 -15 -28.5t-29 -11.5q-17 0 -27.5 12t-8.5 28zM527 786q2 17 14.5 28.5t28.5 11.5q17 0 27.5 -12t9.5 -28q-2 -17 -15 -28.5t-29 -11.5q-17 0 -27.5 12t-8.5 28z" />
    <glyph glyph-name="Aring" unicode="&#xc5;" horiz-adv-x="593" 
d="M654 389q12 -1 20.5 -9.5t7.5 -20.5t-9.5 -20.5t-20.5 -7.5h-23q-43 0 -83 -4q-26 -156 -73 -306q-5 -21 -27 -21q-6 0 -9 1q-11 4 -17 14.5t-2 22.5q40 130 68 282q-169 -22 -298 -74q-50 -117 -84 -226q-4 -11 -14.5 -17t-22.5 -2q-11 4 -17 15t-2 22q31 96 61 170
l-32 -21q-6 -5 -17 -5q-15 0 -24 12q-7 10 -5 21.5t12 18.5q42 31 101 56q94 211 192 313q45 45 88 61q-35 28 -27 75q5 38 35.5 64.5t68.5 26.5t61 -26.5t18 -64.5q-10 -54 -60 -80l1 -1h1q16 -12 27 -38q16 -37 16 -106q0 -51 -10 -128q39 3 74 3h25zM222 320
q129 44 274 60q11 77 11 134q0 44 -7 68q-5 23 -15 31q-4 3 -10 3q-43 0 -97 -54q-52 -54 -108 -151q-27 -48 -48 -91zM439 739q-3 -20 9 -34.5t33 -14.5q20 0 36.5 14.5t19.5 34.5t-9.5 34.5t-32.5 14.5t-36.5 -14.5t-19.5 -34.5z" />
    <glyph glyph-name="AE" unicode="&#xc6;" horiz-adv-x="878" 
d="M929 691q12 0 20.5 -8.5t8.5 -20.5t-8.5 -20.5t-20.5 -8.5q-132 0 -248 -25q0 -10 -5 -18q-46 -68 -98 -207q123 37 259 43q12 0 21 -8t10 -20q0 -12 -8 -21t-20 -9q-156 -6 -285 -55q-24 -75 -41 -139q-20 -87 -25 -115q4 -1 13 -1q64 0 154.5 17.5t158.5 49.5
q10 5 22 0.5t16 -15.5q5 -10 1 -22t-15 -16q-77 -36 -171 -54t-166 -18q-32 0 -44 2q-4 -2 -12 -2q-6 0 -9 1q-11 4 -17 14.5t-2 22.5q15 51 29 105q2 10 11 46q17 71 28 131q-169 -22 -298 -74q-50 -117 -84 -226q-4 -11 -14.5 -17t-22.5 -2q-11 4 -17 15t-2 22
q31 96 61 170l-32 -21q-6 -5 -17 -5q-15 0 -24 12q-7 10 -5 21.5t12 18.5q42 31 101 56q94 211 192 313q73 71 139 71q28 0 47 -16q16 -12 27 -38q16 -37 16 -106v-8q21 49 41 82l-20 -7q-23 -5 -27 15q-5 25 23 43q6 4 14 7q121 45 333 45zM222 320q129 44 274 60
q11 77 11 134q0 44 -7 68q-5 23 -15 31q-4 3 -10 3q-43 0 -97 -54q-52 -54 -108 -151q-27 -48 -48 -91z" />
    <glyph glyph-name="Ccedilla" unicode="&#xc7;" horiz-adv-x="517" 
d="M216 -54q-33 -1 -39 16t12 40q-63 9 -98 52q-41 47 -41 124q1 100 62 214t160 198q99 81 172 83q50 0 78 -36q25 -32 25 -81q0 -80 -58 -156q-19 -22 -41 -5q-10 7 -11.5 19t6.5 22q46 59 46 120q0 28 -13 45q-11 13 -32 14q-52 0 -135 -70q-88 -73 -144.5 -179
t-55.5 -188q0 -57 26 -86q28 -31 85 -34h5q73 0 152 57q59 44 107 107q7 10 19 11.5t22 -5.5t11.5 -19t-5.5 -21q-54 -71 -120 -120q-77 -57 -156 -66v-1q-11 -14 6 -18q76 -15 87 -67q10 -49 -41 -91q-63 -52 -168 -46q-17 1 -21 11t3.5 20t19.5 10q113 4 138 53
q16 32 -12 56q-20 18 -51 17z" />
    <glyph glyph-name="Egrave" unicode="&#xc8;" horiz-adv-x="525" 
d="M325 838q-7 9 -4 22t15 21q24 19 44 -4q37 -43 63 -101q5 -11 0 -23.5t-17 -19.5q-7 -4 -17 -4q-16 0 -24 13q-54 88 -60 96zM576 691q12 0 20.5 -8.5t8.5 -20.5t-8.5 -20.5t-20.5 -8.5q-132 0 -248 -25q0 -10 -5 -18q-46 -68 -98 -207q123 37 259 43q12 0 21 -8t10 -20
q0 -12 -8 -21t-20 -9q-156 -6 -285 -55q-43 -131 -66 -254q4 -1 13 -1q64 0 154.5 17.5t158.5 49.5q10 5 22 0.5t16 -15.5q5 -10 1 -22t-15 -16q-77 -36 -171 -54t-166 -18q-36 0 -55 5q-11 3 -17.5 13t-4.5 21q25 129 58 238q-10 -6 -14 -10q-8 -5 -17 -5q-15 0 -24 11
q-7 10 -5.5 22t11.5 19q31 23 73 42q51 148 99 232q-91 -29 -144 -74q-8 -7 -19 -7q-15 0 -22 10q-8 9 -7 21t10 20q78 65 210 99t295 34z" />
    <glyph glyph-name="Eacute" unicode="&#xc9;" horiz-adv-x="525" 
d="M460 834q-29 -26 -94 -91q-14 -11 -29 -11q-13 3 -16 5q-9 8 -9.5 20.5t8.5 22.5q45 55 98 96q12 9 25 9t20 -8q9 -9 7.5 -21.5t-10.5 -21.5zM576 691q12 0 20.5 -8.5t8.5 -20.5t-8.5 -20.5t-20.5 -8.5q-132 0 -248 -25q0 -10 -5 -18q-46 -68 -98 -207q123 37 259 43
q12 0 21 -8t10 -20q0 -12 -8 -21t-20 -9q-156 -6 -285 -55q-43 -131 -66 -254q4 -1 13 -1q64 0 154.5 17.5t158.5 49.5q10 5 22 0.5t16 -15.5q5 -10 1 -22t-15 -16q-77 -36 -171 -54t-166 -18q-36 0 -55 5q-11 3 -17.5 13t-4.5 21q25 129 58 238q-10 -6 -14 -10
q-8 -5 -17 -5q-15 0 -24 11q-7 10 -5.5 22t11.5 19q31 23 73 42q51 148 99 232q-91 -29 -144 -74q-8 -7 -19 -7q-15 0 -22 10q-8 9 -7 21t10 20q78 65 210 99t295 34z" />
    <glyph glyph-name="Ecircumflex" unicode="&#xca;" horiz-adv-x="525" 
d="M576 691q12 0 20.5 -8.5t8.5 -20.5t-8.5 -20.5t-20.5 -8.5q-132 0 -248 -25q0 -10 -5 -18q-46 -68 -98 -207q123 37 259 43q12 0 21 -8t10 -20q0 -12 -8 -21t-20 -9q-156 -6 -285 -55q-43 -131 -66 -254q4 -1 13 -1q64 0 154.5 17.5t158.5 49.5q10 5 22 0.5t16 -15.5
q5 -10 1 -22t-15 -16q-77 -36 -171 -54t-166 -18q-36 0 -55 5q-11 3 -17.5 13t-4.5 21q25 129 58 238q-10 -6 -14 -10q-8 -5 -17 -5q-15 0 -24 11q-7 10 -5.5 22t11.5 19q31 23 73 42q51 148 99 232q-91 -29 -144 -74q-8 -7 -19 -7q-15 0 -22 10q-8 9 -7 21t10 20
q78 65 210 99t295 34zM455 742l-42 68l-64 -64q-14 -11 -29 -11q-13 3 -16 5q-9 8 -9.5 20.5t8.5 22.5q45 55 98 96q8 6 14 7q5 2 15 2q10 -2 13 -5l7 -6q37 -43 63 -101q5 -11 0 -23.5t-17 -19.5q-7 -4 -17 -4q-16 0 -24 13z" />
    <glyph glyph-name="Edieresis" unicode="&#xcb;" horiz-adv-x="525" 
d="M267 786q2 17 14.5 28.5t28.5 11.5q17 0 27.5 -12t9.5 -28q-2 -17 -15 -28.5t-29 -11.5q-17 0 -27.5 12t-8.5 28zM467 786q2 17 14.5 28.5t28.5 11.5q17 0 27.5 -12t9.5 -28q-2 -17 -15 -28.5t-29 -11.5q-17 0 -27.5 12t-8.5 28zM576 691q12 0 20.5 -8.5t8.5 -20.5
t-8.5 -20.5t-20.5 -8.5q-132 0 -248 -25q0 -10 -5 -18q-46 -68 -98 -207q123 37 259 43q12 0 21 -8t10 -20q0 -12 -8 -21t-20 -9q-156 -6 -285 -55q-43 -131 -66 -254q4 -1 13 -1q64 0 154.5 17.5t158.5 49.5q10 5 22 0.5t16 -15.5q5 -10 1 -22t-15 -16q-77 -36 -171 -54
t-166 -18q-36 0 -55 5q-11 3 -17.5 13t-4.5 21q25 129 58 238q-10 -6 -14 -10q-8 -5 -17 -5q-15 0 -24 11q-7 10 -5.5 22t11.5 19q31 23 73 42q51 148 99 232q-91 -29 -144 -74q-8 -7 -19 -7q-15 0 -22 10q-8 9 -7 21t10 20q78 65 210 99t295 34z" />
    <glyph glyph-name="Igrave" unicode="&#xcc;" horiz-adv-x="260" 
d="M265 838q-7 9 -4 22t15 21q24 19 44 -4q37 -43 63 -101q5 -11 0 -23.5t-17 -19.5q-7 -4 -17 -4q-16 0 -24 13q-54 88 -60 96zM384 678q12 -2 19.5 -11.5t5.5 -21.5q-1 -13 -11 -20.5t-22 -5.5q-10 2 -21 2q-54 -76 -103 -193q-69 -164 -110 -365q12 0 24 6q11 6 22.5 3
t17.5 -14t3 -22.5t-14 -17.5q-38 -18 -104 -18q-21 0 -45 2q-12 2 -19 11.5t-6 22.5q1 12 11 19.5t22 5.5t27 -2q43 221 116 392q39 92 84 165q-6 -1 -15.5 -5t-15.5 -4q-18 0 -25 15q-7 11 -3.5 22.5t14.5 17.5q8 5 24 10q15 4 26 5q25 3 53 3q21 0 45 -2z" />
    <glyph glyph-name="Iacute" unicode="&#xcd;" horiz-adv-x="260" 
d="M420 834q-29 -26 -94 -91q-14 -11 -29 -11q-13 3 -16 5q-9 8 -9.5 20.5t8.5 22.5q45 55 98 96q12 9 25 9t20 -8q9 -9 7.5 -21.5t-10.5 -21.5zM384 678q12 -2 19.5 -11.5t5.5 -21.5q-1 -13 -11 -20.5t-22 -5.5q-10 2 -21 2q-54 -76 -103 -193q-69 -164 -110 -365
q12 0 24 6q11 6 22.5 3t17.5 -14t3 -22.5t-14 -17.5q-38 -18 -104 -18q-21 0 -45 2q-12 2 -19 11.5t-6 22.5q1 12 11 19.5t22 5.5t27 -2q43 221 116 392q39 92 84 165q-6 -1 -15.5 -5t-15.5 -4q-18 0 -25 15q-7 11 -3.5 22.5t14.5 17.5q8 5 24 10q15 4 26 5q25 3 53 3
q21 0 45 -2z" />
    <glyph glyph-name="Icircumflex" unicode="&#xce;" horiz-adv-x="260" 
d="M384 678q12 -2 19.5 -11.5t5.5 -21.5q-1 -13 -11 -20.5t-22 -5.5q-10 2 -21 2q-54 -76 -103 -193q-69 -164 -110 -365q12 0 24 6q11 6 22.5 3t17.5 -14t3 -22.5t-14 -17.5q-38 -18 -104 -18q-21 0 -45 2q-12 2 -19 11.5t-6 22.5q1 12 11 19.5t22 5.5t27 -2
q43 221 116 392q39 92 84 165q-6 -1 -15.5 -5t-15.5 -4q-18 0 -25 15q-7 11 -3.5 22.5t14.5 17.5q8 5 24 10q15 4 26 5q25 3 53 3q21 0 45 -2zM395 742l-42 68l-64 -64q-14 -11 -29 -11q-13 3 -16 5q-9 8 -9.5 20.5t8.5 22.5q45 55 98 96q8 6 14 7q5 2 15 2q10 -2 13 -5
l7 -6q37 -43 63 -101q5 -11 0 -23.5t-17 -19.5q-7 -4 -17 -4q-16 0 -24 13z" />
    <glyph glyph-name="Idieresis" unicode="&#xcf;" horiz-adv-x="260" 
d="M207 786q2 17 14.5 28.5t28.5 11.5q17 0 27.5 -12t9.5 -28q-2 -17 -15 -28.5t-29 -11.5q-17 0 -27.5 12t-8.5 28zM407 786q2 17 14.5 28.5t28.5 11.5q17 0 27.5 -12t9.5 -28q-2 -17 -15 -28.5t-29 -11.5q-17 0 -27.5 12t-8.5 28zM384 678q12 -2 19.5 -11.5t5.5 -21.5
q-1 -13 -11 -20.5t-22 -5.5q-10 2 -21 2q-54 -76 -103 -193q-69 -164 -110 -365q12 0 24 6q11 6 22.5 3t17.5 -14t3 -22.5t-14 -17.5q-38 -18 -104 -18q-21 0 -45 2q-12 2 -19 11.5t-6 22.5q1 12 11 19.5t22 5.5t27 -2q43 221 116 392q39 92 84 165q-6 -1 -15.5 -5t-15.5 -4
q-18 0 -25 15q-7 11 -3.5 22.5t14.5 17.5q8 5 24 10q15 4 26 5q25 3 53 3q21 0 45 -2z" />
    <glyph glyph-name="Eth" unicode="&#xd0;" horiz-adv-x="567" 
d="M386 361q12 0 18.5 -8t4.5 -20q-1 -12 -10.5 -20t-21.5 -8h-177q-44 -140 -70 -281q-5 -24 -29 -24h-5q-12 2 -18.5 12.5t-4.5 21.5q26 139 66 271h-58q-12 0 -19 8t-5 20t11.5 20t21.5 8h67q55 159 112 249q-90 -33 -159 -99q-8 -8 -20.5 -8t-20.5 8q-8 9 -8 21t8 20
q106 104 257 135q45 8 80 8q103 0 159 -61q52 -58 52 -153q0 -98 -55 -213q-65 -134 -188 -210q-93 -56 -171 -58q-7 0 -10 1q-12 1 -20 10t-7 21t10 20t22 7h5q59 -2 140 49q107 64 166 186q50 103 50 187q0 74 -37 113q-38 42 -116 43q-29 0 -69 -8q-12 -2 -20 -4
q9 -7 11 -18.5t-5 -20.5q-50 -73 -104 -225h167z" />
    <glyph glyph-name="Ntilde" unicode="&#xd1;" horiz-adv-x="577" 
d="M387 1q-46 3 -60 59q-10 39 -10 97q-2 58 10 256q5 71 7 149q0 21 -2 41l-16 -18q-25 -31 -61 -100q-69 -142 -154 -456q-3 -13 -13.5 -21t-23.5 -7q-12 1 -19 10t-4 22q84 324 183 515q21 39 45 68q8 10 16.5 19t21.5 20t24.5 17.5t24 6.5t21.5 -9q25 -20 18 -145
l-15 -258q-3 -98 2 -150q6 -122 77 66q3 7 4 9q65 158 152 463q4 13 15.5 20.5t22.5 6.5q13 -2 19.5 -12t2.5 -23q-55 -186 -96 -307q-44 -129 -79 -206q-50 -109 -88 -128q-10 -5 -25 -5zM421 746q-24 -18 -38.5 0t4.5 38q49 44 88 44q26 0 63 -29q17 -15 29 -15
q17 0 42 24q18 15 34.5 0t-0.5 -36q-41 -38 -76 -38q-27 0 -60 27q-23 17 -32 17q-19 0 -54 -32z" />
    <glyph glyph-name="Ograve" unicode="&#xd2;" horiz-adv-x="560" 
d="M118 38q-49 38 -66 106q-12 45 -11 96q2 51 16 104q25 101 87 184q62 82 140 121q56 28 110 28q47 0 85 -20q36 -19 63 -55q52 -73 47 -179q-2 -47 -13 -91q-25 -107 -84 -189q-57 -81 -138 -118q-56 -25 -115 -25q-72 0 -121 38zM310 597q-43 -21 -83 -61
q-83 -85 -113 -204q-13 -52 -14 -92q-3 -63 19 -110q20 -41 60 -59q25 -12 62 -12q46 0 89 19q44 20 80 57q78 79 109 209q11 44 11 79q3 66 -21 115q-19 45 -59 66q-26 14 -58 14q-42 0 -82 -21zM335 838q-7 9 -4 22t15 21q24 19 44 -4q37 -43 63 -101q5 -11 0 -23.5
t-17 -19.5q-7 -4 -17 -4q-16 0 -24 13q-54 88 -60 96z" />
    <glyph glyph-name="Oacute" unicode="&#xd3;" horiz-adv-x="560" 
d="M118 38q-49 38 -66 106q-12 45 -11 96q2 51 16 104q25 101 87 184q62 82 140 121q56 28 110 28q47 0 85 -20q36 -19 63 -55q52 -73 47 -179q-2 -47 -13 -91q-25 -107 -84 -189q-57 -81 -138 -118q-56 -25 -115 -25q-72 0 -121 38zM310 597q-43 -21 -83 -61
q-83 -85 -113 -204q-13 -52 -14 -92q-3 -63 19 -110q20 -41 60 -59q25 -12 62 -12q46 0 89 19q44 20 80 57q78 79 109 209q11 44 11 79q3 66 -21 115q-19 45 -59 66q-26 14 -58 14q-42 0 -82 -21zM470 834q-29 -26 -94 -91q-14 -11 -29 -11q-13 3 -16 5q-9 8 -9.5 20.5
t8.5 22.5q45 55 98 96q12 9 25 9t20 -8q9 -9 7.5 -21.5t-10.5 -21.5z" />
    <glyph glyph-name="Ocircumflex" unicode="&#xd4;" horiz-adv-x="560" 
d="M118 38q-49 38 -66 106q-12 45 -11 96q2 51 16 104q25 101 87 184q62 82 140 121q56 28 110 28q47 0 85 -20q36 -19 63 -55q52 -73 47 -179q-2 -47 -13 -91q-25 -107 -84 -189q-57 -81 -138 -118q-56 -25 -115 -25q-72 0 -121 38zM310 597q-43 -21 -83 -61
q-83 -85 -113 -204q-13 -52 -14 -92q-3 -63 19 -110q20 -41 60 -59q25 -12 62 -12q46 0 89 19q44 20 80 57q78 79 109 209q11 44 11 79q3 66 -21 115q-19 45 -59 66q-26 14 -58 14q-42 0 -82 -21zM445 742l-42 68l-64 -64q-14 -11 -29 -11q-13 3 -16 5q-9 8 -9.5 20.5
t8.5 22.5q45 55 98 96q8 6 14 7q5 2 15 2q10 -2 13 -5l7 -6q37 -43 63 -101q5 -11 0 -23.5t-17 -19.5q-7 -4 -17 -4q-16 0 -24 13z" />
    <glyph glyph-name="Otilde" unicode="&#xd5;" horiz-adv-x="560" 
d="M118 38q-49 38 -66 106q-12 45 -11 96q2 51 16 104q25 101 87 184q62 82 140 121q56 28 110 28q47 0 85 -20q36 -19 63 -55q52 -73 47 -179q-2 -47 -13 -91q-25 -107 -84 -189q-57 -81 -138 -118q-56 -25 -115 -25q-72 0 -121 38zM310 597q-43 -21 -83 -61
q-83 -85 -113 -204q-13 -52 -14 -92q-3 -63 19 -110q20 -41 60 -59q25 -12 62 -12q46 0 89 19q44 20 80 57q78 79 109 209q11 44 11 79q3 66 -21 115q-19 45 -59 66q-26 14 -58 14q-42 0 -82 -21zM321 746q-24 -18 -38.5 0t4.5 38q49 44 88 44q26 0 63 -29q17 -15 29 -15
q17 0 42 24q18 15 34.5 0t-0.5 -36q-41 -38 -76 -38q-27 0 -60 27l1 -1q-22 18 -33 18q-19 0 -54 -32z" />
    <glyph glyph-name="Odieresis" unicode="&#xd6;" horiz-adv-x="560" 
d="M118 38q-49 38 -66 106q-12 45 -11 96q2 51 16 104q25 101 87 184q62 82 140 121q56 28 110 28q47 0 85 -20q36 -19 63 -55q52 -73 47 -179q-2 -47 -13 -91q-25 -107 -84 -189q-57 -81 -138 -118q-56 -25 -115 -25q-72 0 -121 38zM310 597q-43 -21 -83 -61
q-83 -85 -113 -204q-13 -52 -14 -92q-3 -63 19 -110q20 -41 60 -59q25 -12 62 -12q46 0 89 19q44 20 80 57q78 79 109 209q11 44 11 79q3 66 -21 115q-19 45 -59 66q-26 14 -58 14q-42 0 -82 -21zM287 786q2 17 14.5 28.5t28.5 11.5q17 0 27.5 -12t9.5 -28q-2 -17 -15 -28.5
t-29 -11.5q-17 0 -27.5 12t-8.5 28zM487 786q2 17 14.5 28.5t28.5 11.5q17 0 27.5 -12t9.5 -28q-2 -17 -15 -28.5t-29 -11.5q-17 0 -27.5 12t-8.5 28z" />
    <glyph glyph-name="multiply" unicode="&#xd7;" horiz-adv-x="538" 
d="M502 511q8 -8 5.5 -20t-12.5 -21l-176 -149l123 -150q8 -8 5.5 -19.5t-12.5 -19.5q-8 -8 -21 -8q-14 0 -19 8l-124 149l-175 -149q-8 -8 -21 -8q-12 0 -19 8t-5 19.5t12 19.5l176 150l-123 149q-16 21 7 41q10 7 21.5 7t18.5 -7l122 -150l177 150q10 7 21.5 7t18.5 -7z
" />
    <glyph glyph-name="Oslash" unicode="&#xd8;" horiz-adv-x="560" 
d="M515 674q22 -13 6 -37l-5 -7q10 -8 26 -28q52 -73 47 -179q-2 -47 -13 -91q-25 -107 -84 -189q-57 -81 -138 -118q-56 -25 -115 -25q-63 0 -107 28l-8 -12q-10 -16 -27 -16q-8 0 -13 2q-9 5 -11.5 16t4.5 21l15 24q-27 32 -40 81q-12 45 -11 96q2 51 16 104
q25 101 87 184q62 82 140 121q56 28 110 28q44 0 80 -18l1 2q6 10 17.5 14t22.5 -1zM509 538q-10 22 -26 40l-319 -499q10 -6 15 -8q25 -12 62 -12q46 0 89 19q44 20 80 57q78 79 109 209q11 44 11 79q3 66 -21 115zM310 597q-43 -21 -83 -61q-83 -85 -113 -204
q-13 -52 -14 -92q-3 -63 19 -110l7 -14l315 492q-21 10 -49 10q-42 0 -82 -21z" />
    <glyph glyph-name="Ugrave" unicode="&#xd9;" horiz-adv-x="510" 
d="M375 838q-7 9 -4 22t15 21q24 19 44 -4q37 -43 63 -101q5 -11 0 -23.5t-17 -19.5q-7 -4 -17 -4q-16 0 -24 13q-54 88 -60 96zM394 113q-55 -66 -113 -94q-33 -17 -74 -19h-6q-37 0 -65 14q-27 14 -43 43q-11 20 -15 41q-14 70 2 177q9 77 49.5 215t61.5 173q16 25 40 18
q24 -9 16 -34q-79 -243 -102 -372q-7 -43 -10 -65.5t-1 -57t14 -56.5q7 -16 19 -23q17 -12 45 -12h4q45 2 95 46q48 42 97 129q45 80 84 189q38 131 67 229q4 13 15 21t23 6q12 -1 18.5 -10.5t3.5 -21.5q-8 -36 -25 -94t-30 -98l-13 -40q-71 -198 -157 -304z" />
    <glyph glyph-name="Uacute" unicode="&#xda;" horiz-adv-x="510" 
d="M520 834q-29 -26 -94 -91q-14 -11 -29 -11q-13 3 -16 5q-9 8 -9.5 20.5t8.5 22.5q45 55 98 96q12 9 25 9t20 -8q9 -9 7.5 -21.5t-10.5 -21.5zM394 113q-55 -66 -113 -94q-33 -17 -74 -19h-6q-37 0 -65 14q-27 14 -43 43q-11 20 -15 41q-14 70 2 177q9 77 49.5 215
t61.5 173q16 25 40 18q24 -9 16 -34q-79 -243 -102 -372q-7 -43 -10 -65.5t-1 -57t14 -56.5q7 -16 19 -23q17 -12 45 -12h4q45 2 95 46q48 42 97 129q45 80 84 189q38 131 67 229q4 13 15 21t23 6q12 -1 18.5 -10.5t3.5 -21.5q-8 -36 -25 -94t-30 -98l-13 -40
q-71 -198 -157 -304z" />
    <glyph glyph-name="Ucircumflex" unicode="&#xdb;" horiz-adv-x="510" 
d="M394 113q-55 -66 -113 -94q-33 -17 -74 -19h-6q-37 0 -65 14q-27 14 -43 43q-11 20 -15 41q-14 70 2 177q9 77 49.5 215t61.5 173q16 25 40 18q24 -9 16 -34q-79 -243 -102 -372q-7 -43 -10 -65.5t-1 -57t14 -56.5q7 -16 19 -23q17 -12 45 -12h4q45 2 95 46q48 42 97 129
q45 80 84 189q38 131 67 229q4 13 15 21t23 6q12 -1 18.5 -10.5t3.5 -21.5q-8 -36 -25 -94t-30 -98l-13 -40q-71 -198 -157 -304zM475 742l-42 68l-64 -64q-14 -11 -29 -11q-13 3 -16 5q-9 8 -9.5 20.5t8.5 22.5q45 55 98 96q8 6 14 7q5 2 15 2q10 -2 13 -5l7 -6
q37 -43 63 -101q5 -11 0 -23.5t-17 -19.5q-7 -4 -17 -4q-16 0 -24 13z" />
    <glyph glyph-name="Udieresis" unicode="&#xdc;" horiz-adv-x="510" 
d="M394 113q-55 -66 -113 -94q-33 -17 -74 -19h-6q-37 0 -65 14q-27 14 -43 43q-11 20 -15 41q-14 70 2 177q9 77 49.5 215t61.5 173q16 25 40 18q24 -9 16 -34q-79 -243 -102 -372q-7 -43 -10 -65.5t-1 -57t14 -56.5q7 -16 19 -23q17 -12 45 -12h4q45 2 95 46q48 42 97 129
q45 80 84 189q38 131 67 229q4 13 15 21t23 6q12 -1 18.5 -10.5t3.5 -21.5q-8 -36 -25 -94t-30 -98l-13 -40q-71 -198 -157 -304zM341 746q-24 -18 -38.5 0t4.5 38q49 44 88 44q26 0 63 -29q17 -15 29 -15q17 0 42 24q18 15 34.5 0t-0.5 -36q-41 -38 -76 -38q-27 0 -60 27
q-23 17 -32 17q-19 0 -54 -32z" />
    <glyph glyph-name="Yacute" unicode="&#xdd;" horiz-adv-x="427" 
d="M566 677q9 -8 10 -20t-7 -22q-83 -98 -162 -226q-122 -192 -193 -390q-8 -19 -28 -19q-7 0 -10 1q-12 4 -17 15.5t-1 22.5q46 126 113 254q-55 44 -104 117q-46 70 -75 150q-16 48 -21 86q-2 12 5.5 21.5t19.5 11.5t21.5 -5.5t11.5 -19.5q5 -36 19 -74q15 -44 41 -91
q46 -88 111 -143q33 58 57 94q85 136 167 233q8 10 20.5 11t21.5 -7zM394 834q-29 -26 -94 -91q-14 -11 -29 -11q-13 3 -16 5q-9 8 -9.5 20.5t8.5 22.5q45 55 98 96q12 9 25 9t20 -8q9 -9 7.5 -21.5t-10.5 -21.5z" />
    <glyph glyph-name="Thorn" unicode="&#xde;" horiz-adv-x="470" 
d="M452 431q10 -29 6 -55q-7 -39 -37 -73q-30 -36 -73 -62q-93 -56 -223 -67q-19 -70 -33 -144q-2 -13 -12.5 -21.5t-23.5 -8.5t-20 9.5t-5 21.5q25 127 74 309q50 178 101 305q6 12 18 19t24 3q12 -2 17 -13t-1 -23q-23 -54 -44 -123q27 4 57 4q67 0 114 -22q46 -19 61 -59
zM376 335q17 24 20 41q2 14 -3 24q-8 16 -19 24q-31 26 -108 26q-36 0 -68 -5q-22 -74 -32 -112q-22 -82 -26 -97q79 8 142 35q61 26 94 64z" />
    <glyph glyph-name="germandbls" unicode="&#xdf;" horiz-adv-x="609" 
d="M11 30q2 13 12 22t23 9q65 8 90 108q27 93 54 200q38 148 42 164q16 56 65 91q51 41 114 41q39 0 79 -19q41 -19 59 -64q17 -41 9 -88q-8 -41 -34 -76q-14 -18 -28 -29q28 -18 43 -41q41 -60 26 -144q-9 -57 -45 -107q-41 -54 -98 -78q-42 -17 -89 -17h-2q-48 0 -81 18
q-29 19 -38 45q-6 14 -8 32q-1 9 2 31l2 9q4 13 15 21t22 6q13 -2 19 -11.5t2 -22.5v-2q-16 -63 41 -73q51 -9 112 25q20 12 34 26q40 39 50 98q10 46 -5 81q-14 36 -51 55q-23 13 -61 13q-11 0 -20 9q-7 8 -5 22q2 11 13 21q10 9 22 9q34 0 58 15q22 14 31 33q7 12 11 32
q5 32 -5 57q-24 52 -91 52q-43 0 -70 -24q-28 -20 -39 -53l-41 -163q-6 -22 -17 -64.5t-20 -76t-17 -60.5q-14 -54 -34 -87q-21 -33 -50 -53q-18 -12 -34 -16q-19 -6 -42 -6q-13 0 -20 8.5t-5 21.5z" />
    <glyph glyph-name="agrave" unicode="&#xe0;" 
d="M413 3q-7 6 -12 15.5t-7.5 22.5t-4.5 24t-2 26.5v23.5t1 21l1 14q-18 -26 -51 -59q-92 -89 -186 -89h-5q-57 2 -86 45q-29 42 -17 109q9 47 39 103q58 100 154 150q73 36 147 36q37 0 55 -7q11 -4 14.5 -15t-3.5 -23q-6 -11 -17.5 -16.5t-22.5 -1.5q-8 5 -36 5
q-61 0 -116 -29q-77 -40 -125 -122q-25 -44 -31 -80q-9 -46 10 -71q17 -23 47 -24h3q66 0 138 68q68 66 122 184q18 61 42 107q14 24 38 19q25 -7 17 -34q-29 -76 -41 -104q-13 -42 -21 -91q-7 -35 -11 -82q-3 -49 6 -74q11 -27 2 -39q-10 -15 -28 -15q-9 0 -13 3zM325 608
q-7 9 -4 22t15 21q24 19 44 -4q37 -43 63 -101q5 -11 0 -23.5t-17 -19.5q-7 -4 -17 -4q-16 0 -24 13q-54 88 -60 96z" />
    <glyph glyph-name="aacute" unicode="&#xe1;" 
d="M413 3q-7 6 -12 15.5t-7.5 22.5t-4.5 24t-2 26.5v23.5t1 21l1 14q-18 -26 -51 -59q-92 -89 -186 -89h-5q-57 2 -86 45q-29 42 -17 109q9 47 39 103q58 100 154 150q73 36 147 36q37 0 55 -7q11 -4 14.5 -15t-3.5 -23q-6 -11 -17.5 -16.5t-22.5 -1.5q-8 5 -36 5
q-61 0 -116 -29q-77 -40 -125 -122q-25 -44 -31 -80q-9 -46 10 -71q17 -23 47 -24h3q66 0 138 68q68 66 122 184q18 61 42 107q14 24 38 19q25 -7 17 -34q-29 -76 -41 -104q-13 -42 -21 -91q-7 -35 -11 -82q-3 -49 6 -74q11 -27 2 -39q-10 -15 -28 -15q-9 0 -13 3zM450 604
q-29 -26 -94 -91q-14 -11 -29 -11q-13 3 -16 5q-9 8 -9.5 20.5t8.5 22.5q45 55 98 96q12 9 25 9t20 -8q9 -9 7.5 -21.5t-10.5 -21.5z" />
    <glyph glyph-name="acircumflex" unicode="&#xe2;" 
d="M413 3q-7 6 -12 15.5t-7.5 22.5t-4.5 24t-2 26.5v23.5t1 21l1 14q-18 -26 -51 -59q-92 -89 -186 -89h-5q-57 2 -86 45q-29 42 -17 109q9 47 39 103q58 100 154 150q73 36 147 36q37 0 55 -7q11 -4 14.5 -15t-3.5 -23q-6 -11 -17.5 -16.5t-22.5 -1.5q-8 5 -36 5
q-61 0 -116 -29q-77 -40 -125 -122q-25 -44 -31 -80q-9 -46 10 -71q17 -23 47 -24h3q66 0 138 68q68 66 122 184q18 61 42 107q14 24 38 19q25 -7 17 -34q-29 -76 -41 -104q-13 -42 -21 -91q-7 -35 -11 -82q-3 -49 6 -74q11 -27 2 -39q-10 -15 -28 -15q-9 0 -13 3zM425 512
l-42 68l-64 -64q-26 -20 -45 -6q-9 8 -9.5 20.5t8.5 22.5q45 55 98 96q8 6 14 7q5 2 15 2q10 -2 13 -5l7 -6q37 -43 63 -101q5 -11 0 -23.5t-17 -19.5q-7 -4 -17 -4q-16 0 -24 13z" />
    <glyph glyph-name="atilde" unicode="&#xe3;" 
d="M413 3q-7 6 -12 15.5t-7.5 22.5t-4.5 24t-2 26.5v23.5t1 21l1 14q-18 -26 -51 -59q-92 -89 -186 -89h-5q-57 2 -86 45q-29 42 -17 109q9 47 39 103q58 100 154 150q73 36 147 36q37 0 55 -7q11 -4 14.5 -15t-3.5 -23q-6 -11 -17.5 -16.5t-22.5 -1.5q-8 5 -36 5
q-61 0 -116 -29q-77 -40 -125 -122q-25 -44 -31 -80q-9 -46 10 -71q17 -23 47 -24h3q66 0 138 68q68 66 122 184q18 61 42 107q14 24 38 19q25 -7 17 -34q-29 -76 -41 -104q-13 -42 -21 -91q-7 -35 -11 -82q-3 -49 6 -74q11 -27 2 -39q-10 -15 -28 -15q-9 0 -13 3zM291 536
q-24 -18 -38.5 0t4.5 38q49 44 88 44q26 0 63 -29q17 -15 29 -15q17 0 42 24q18 15 34.5 0t-0.5 -36q-41 -38 -76 -38q-27 0 -60 27q-23 17 -32 17q-19 0 -54 -32z" />
    <glyph glyph-name="adieresis" unicode="&#xe4;" 
d="M413 3q-7 6 -12 15.5t-7.5 22.5t-4.5 24t-2 26.5v23.5t1 21l1 14q-18 -26 -51 -59q-92 -89 -186 -89h-5q-57 2 -86 45q-29 42 -17 109q9 47 39 103q58 100 154 150q73 36 147 36q37 0 55 -7q11 -4 14.5 -15t-3.5 -23q-6 -11 -17.5 -16.5t-22.5 -1.5q-8 5 -36 5
q-61 0 -116 -29q-77 -40 -125 -122q-25 -44 -31 -80q-9 -46 10 -71q17 -23 47 -24h3q66 0 138 68q68 66 122 184q18 61 42 107q14 24 38 19q25 -7 17 -34q-29 -76 -41 -104q-13 -42 -21 -91q-7 -35 -11 -82q-3 -49 6 -74q11 -27 2 -39q-10 -15 -28 -15q-9 0 -13 3zM237 566
q2 17 14.5 28.5t28.5 11.5q17 0 27.5 -12t9.5 -28q-2 -17 -15 -28.5t-29 -11.5q-17 0 -27.5 12t-8.5 28zM437 566q2 17 14.5 28.5t28.5 11.5q17 0 27.5 -12t9.5 -28q-2 -17 -15 -28.5t-29 -11.5q-17 0 -27.5 12t-8.5 28z" />
    <glyph glyph-name="aring" unicode="&#xe5;" 
d="M413 3q-7 6 -12 15.5t-7.5 22.5t-4.5 24t-2 26.5v23.5t1 21l1 14q-18 -26 -51 -59q-92 -89 -186 -89h-5q-57 2 -86 45q-29 42 -17 109q9 47 39 103q58 100 154 150q73 36 147 36q37 0 55 -7q11 -4 14.5 -15t-3.5 -23q-6 -11 -17.5 -16.5t-22.5 -1.5q-8 5 -36 5
q-61 0 -116 -29q-77 -40 -125 -122q-25 -44 -31 -80q-9 -46 10 -71q17 -23 47 -24h3q66 0 138 68q68 66 122 184q18 61 42 107q14 24 38 19q25 -7 17 -34q-29 -76 -41 -104q-13 -42 -21 -91q-7 -35 -11 -82q-3 -49 6 -74q11 -27 2 -39q-10 -15 -28 -15q-9 0 -13 3zM297 569
q5 38 35.5 64.5t68.5 26.5t61 -26.5t18 -64.5q-6 -38 -37 -64.5t-69 -26.5t-60.5 26.5t-16.5 64.5zM339 569q-3 -20 9 -34.5t33 -14.5q20 0 36.5 14.5t19.5 34.5t-9.5 34.5t-32.5 14.5t-36.5 -14.5t-19.5 -34.5z" />
    <glyph glyph-name="ae" unicode="&#xe6;" horiz-adv-x="827" 
d="M776 153q18 -19 -6 -43q-119 -107 -242 -107q-80 0 -125 48q-15 17 -24 40q-30 -34 -75 -61q-35 -17 -66 -24q-27 -6 -64 -6h-11q-46 0 -77 17q-32 17 -41 48q-18 62 32.5 107.5t119.5 56.5q94 18 192 18h2q35 54 17.5 97t-82.5 43q-79 0 -142 -48q-13 -10 -25 -31
q-8 -12 -20 -17.5t-22 -0.5q-11 5 -14.5 16.5t3.5 23.5q16 31 44 52q24 21 57 36q61 30 129 30q31 0 60 -8t49 -26q13 -12 21 -30q6 -14 6 -23q31 28 62 44q76 44 155 44q32 0 62 -10q56 -22 56 -70q0 -44 -36.5 -89t-83.5 -66q-69 -31 -195 -31q-41 0 -58 1l-4 -9
q-6 -48 23 -78q28 -33 86 -33q96 0 193 88q10 9 23 9.5t21 -8.5zM558 353q-70 -38 -103 -108q7 0 23 -0.5t25 -0.5q109 0 167 25q36 17 59 53q31 47 -15 61q-14 4 -36 4q-62 0 -120 -34zM359 161q5 8 12 22v4q-79 -1 -175 -18q-82 -17 -92 -60q-4 -24 16 -36t53 -12h11
q30 0 58 6q39 10 71 38q24 20 46 56z" />
    <glyph glyph-name="ccedilla" unicode="&#xe7;" horiz-adv-x="447" 
d="M76 37q-47 42 -32 122q8 46 38 102q49 90 127 139q68 45 139 45q39 0 65 -15q31 -16 38 -50q2 -12 -5.5 -23.5t-19.5 -15.5q-13 -5 -23.5 0.5t-11.5 17.5q-5 11 -15 18q-14 9 -38 9q-51 0 -103 -34q-62 -40 -101 -111q-26 -50 -30 -82q-8 -50 17 -75q27 -24 79 -24
q51 0 109 24q57 24 96 66q9 9 22.5 10.5t21.5 -5.5t7.5 -20t-9.5 -23q-48 -51 -122 -83q-54 -23 -110 -28q-11 -14 6 -18q76 -15 87 -67q10 -49 -41 -91q-63 -52 -168 -46q-17 1 -21 11t3.5 20t19.5 10q113 4 138 53q16 32 -12 56q-20 18 -51 17q-33 -1 -38.5 16.5
t12.5 40.5q-45 8 -74 34z" />
    <glyph glyph-name="egrave" unicode="&#xe8;" horiz-adv-x="478" 
d="M76 47q-47 50 -33 133q8 43 28 81q47 91 136 142q77 42 154 42q36 0 62 -10q29 -9 45 -32q11 -16 11 -37q0 -8 -2 -18q-13 -70 -90 -122q-83 -56 -213 -69q-12 -1 -20.5 7.5t-7.5 21.5q1 12 10.5 21.5t22.5 10.5q112 11 180 56q49 35 57 74q2 16 -11 24.5t-25 10t-30 1.5
q-60 0 -121 -34q-66 -37 -103 -108q-18 -35 -22 -62q-7 -54 21 -87q28 -31 86 -31q97 0 194 86q10 10 23 10.5t21 -7.5q7 -10 5 -22.5t-12 -21.5q-119 -107 -241 -107q-81 0 -125 47zM275 608q-7 9 -4 22t15 21q24 19 44 -4q37 -43 63 -101q5 -11 0 -23.5t-17 -19.5
q-7 -4 -17 -4q-16 0 -24 13q-54 88 -60 96z" />
    <glyph glyph-name="eacute" unicode="&#xe9;" horiz-adv-x="478" 
d="M76 47q-47 50 -33 133q8 43 28 81q47 91 136 142q77 42 154 42q36 0 62 -10q29 -9 45 -32q11 -16 11 -37q0 -8 -2 -18q-13 -70 -90 -122q-83 -56 -213 -69q-12 -1 -20.5 7.5t-7.5 21.5q1 12 10.5 21.5t22.5 10.5q112 11 180 56q49 35 57 74q2 16 -11 24.5t-25 10t-30 1.5
q-60 0 -121 -34q-66 -37 -103 -108q-18 -35 -22 -62q-7 -54 21 -87q28 -31 86 -31q97 0 194 86q10 10 23 10.5t21 -7.5q7 -10 5 -22.5t-12 -21.5q-119 -107 -241 -107q-81 0 -125 47zM410 604q-29 -26 -94 -91q-14 -11 -29 -11q-13 3 -16 5q-9 8 -9.5 20.5t8.5 22.5
q45 55 98 96q12 9 25 9t20 -8q9 -9 7.5 -21.5t-10.5 -21.5z" />
    <glyph glyph-name="ecircumflex" unicode="&#xea;" horiz-adv-x="478" 
d="M76 47q-47 50 -33 133q8 43 28 81q47 91 136 142q77 42 154 42q36 0 62 -10q29 -9 45 -32q11 -16 11 -37q0 -8 -2 -18q-13 -70 -90 -122q-83 -56 -213 -69q-12 -1 -20.5 7.5t-7.5 21.5q1 12 10.5 21.5t22.5 10.5q112 11 180 56q49 35 57 74q2 16 -11 24.5t-25 10t-30 1.5
q-60 0 -121 -34q-66 -37 -103 -108q-18 -35 -22 -62q-7 -54 21 -87q28 -31 86 -31q97 0 194 86q10 10 23 10.5t21 -7.5q7 -10 5 -22.5t-12 -21.5q-119 -107 -241 -107q-81 0 -125 47zM385 512l-42 68l-64 -64q-26 -20 -45 -6q-9 8 -9.5 20.5t8.5 22.5q45 55 98 96q8 6 14 7
q5 2 15 2q10 -2 13 -5l7 -6q37 -43 63 -101q5 -11 0 -23.5t-17 -19.5q-7 -4 -17 -4q-16 0 -24 13z" />
    <glyph glyph-name="edieresis" unicode="&#xeb;" horiz-adv-x="478" 
d="M76 47q-47 50 -33 133q8 43 28 81q47 91 136 142q77 42 154 42q36 0 62 -10q29 -9 45 -32q11 -16 11 -37q0 -8 -2 -18q-13 -70 -90 -122q-83 -56 -213 -69q-12 -1 -20.5 7.5t-7.5 21.5q1 12 10.5 21.5t22.5 10.5q112 11 180 56q49 35 57 74q2 16 -11 24.5t-25 10t-30 1.5
q-60 0 -121 -34q-66 -37 -103 -108q-18 -35 -22 -62q-7 -54 21 -87q28 -31 86 -31q97 0 194 86q10 10 23 10.5t21 -7.5q7 -10 5 -22.5t-12 -21.5q-119 -107 -241 -107q-81 0 -125 47zM207 566q2 17 14.5 28.5t28.5 11.5q17 0 27.5 -12t9.5 -28q-2 -17 -15 -28.5t-29 -11.5
q-17 0 -27.5 12t-8.5 28zM407 566q2 17 14.5 28.5t28.5 11.5q17 0 27.5 -12t9.5 -28q-2 -17 -15 -28.5t-29 -11.5q-17 0 -27.5 12t-8.5 28z" />
    <glyph glyph-name="igrave" unicode="&#xec;" horiz-adv-x="194" 
d="M207 440q11 -13 5 -28q-9 -26 -47 -156q-52 -177 -39 -208q4 -10 0 -22.5t-15 -19.5q-8 -6 -19 -6q-26 0 -30 34q-3 25 6 76q9 52 37 153l30 98q-10 -6 -22 -4.5t-18 11.5q-6 9 -2.5 22t15.5 21q37 24 71 34q17 6 28 -5zM135 608q-7 9 -4 22t15 21q24 19 44 -4
q37 -43 63 -101q5 -11 0 -23.5t-17 -19.5q-7 -4 -17 -4q-16 0 -24 13q-54 88 -60 96z" />
    <glyph glyph-name="iacute" unicode="&#xed;" horiz-adv-x="194" 
d="M207 440q11 -13 5 -28q-9 -26 -47 -156q-52 -177 -39 -208q4 -10 0 -22.5t-15 -19.5q-8 -6 -19 -6q-26 0 -30 34q-3 25 6 76q9 52 37 153l30 98q-10 -6 -22 -4.5t-18 11.5q-6 9 -2.5 22t15.5 21q37 24 71 34q17 6 28 -5zM250 604q-29 -26 -94 -91q-14 -11 -29 -11
q-13 3 -16 5q-9 8 -9.5 20.5t8.5 22.5q45 55 98 96q12 9 25 9t20 -8q9 -9 7.5 -21.5t-10.5 -21.5z" />
    <glyph glyph-name="icircumflex" unicode="&#xee;" horiz-adv-x="194" 
d="M207 440q11 -13 5 -28q-9 -26 -47 -156q-52 -177 -39 -208q4 -10 0 -22.5t-15 -19.5q-8 -6 -19 -6q-26 0 -30 34q-3 25 6 76q9 52 37 153l30 98q-10 -6 -22 -4.5t-18 11.5q-6 9 -2.5 22t15.5 21q37 24 71 34q17 6 28 -5zM235 512l-42 68l-64 -64q-26 -20 -45 -6
q-9 8 -9.5 20.5t8.5 22.5q45 55 98 96q8 6 14 7q5 2 15 2q10 -2 13 -5l7 -6q37 -43 63 -101q5 -11 0 -23.5t-17 -19.5q-7 -4 -17 -4q-16 0 -24 13z" />
    <glyph glyph-name="idieresis" unicode="&#xef;" horiz-adv-x="194" 
d="M207 440q11 -13 5 -28q-9 -26 -47 -156q-52 -177 -39 -208q4 -10 0 -22.5t-15 -19.5q-8 -6 -19 -6q-26 0 -30 34q-3 25 6 76q9 52 37 153l30 98q-10 -6 -22 -4.5t-18 11.5q-6 9 -2.5 22t15.5 21q37 24 71 34q17 6 28 -5zM247 566q2 17 14.5 28.5t28.5 11.5q17 0 27.5 -12
t9.5 -28q-2 -17 -15 -28.5t-29 -11.5q-17 0 -27.5 12t-8.5 28zM47 566q2 17 14.5 28.5t28.5 11.5q17 0 27.5 -12t9.5 -28q-2 -17 -15 -28.5t-29 -11.5q-17 0 -27.5 12t-8.5 28z" />
    <glyph glyph-name="eth" unicode="&#xf0;" horiz-adv-x="559" 
d="M489 474q30 -84 14 -178q-8 -41 -18 -69q-34 -104 -124 -169q-82 -58 -170 -58q-58 0 -99 28q-45 29 -57 84q-8 41 -1 86l2 8q19 92 102 160q80 64 174 64q32 0 65 -9q11 -4 14.5 -15t-1.5 -24q-6 -11 -18 -17t-23 -3q-22 7 -47 7q-71 0 -130 -48q-61 -50 -74 -116l-2 -7
q-8 -51 7 -86q17 -29 50 -42q19 -8 48 -8q70 0 130 44q69 50 95 130q11 34 16 60q11 82 -12 148q-13 36 -46 85l-140 -75q-9 -3 -17 -3q-16 0 -24 15q-4 11 1.5 23t17.5 18l124 66q-31 29 -50 43q-9 8 -9 20.5t10 22.5q8 11 21 13t23 -5q30 -23 65 -62l80 42q12 6 24 3
t17 -14q4 -11 -1.5 -23.5t-17.5 -19.5l-65 -34q28 -39 46 -85z" />
    <glyph glyph-name="ntilde" unicode="&#xf1;" horiz-adv-x="491" 
d="M57 0h-3q-13 1 -19.5 10.5t-2.5 22.5q54 221 110 387q4 12 15.5 19.5t23.5 5.5q13 -2 18.5 -12t1.5 -23q-6 -16 -26 -79q33 38 74 67q46 28 90 38t71 5.5t46 -16.5q26 -18 36 -55t8.5 -68t-7.5 -75q-13 -75 -58 -201q-5 -13 -16 -20t-24 -5q-12 2 -17.5 12t-1.5 23
q41 112 55 191q7 40 7 85q-7 80 -77 71q-45 -8 -83 -33q-41 -29 -75 -74q-73 -96 -111 -248q-3 -11 -13.5 -19.5t-21.5 -8.5zM291 536q-24 -18 -38.5 0t4.5 38q49 44 88 44q26 0 63 -29q17 -15 29 -15q17 0 42 24q18 15 34.5 0t-0.5 -36q-41 -38 -76 -38q-27 0 -60 27
q-23 17 -32 17q-19 0 -54 -32z" />
    <glyph glyph-name="ograve" unicode="&#xf2;" horiz-adv-x="477" 
d="M111 31q-48 35 -65 88q-25 103 59 215q31 38 78 68q79 46 182 48q29 0 62 -6q12 -1 18 -11.5t2 -23.5q-2 -6 -14 -18q4 -3 18 -19q32 -51 35 -103.5t-17 -93.5t-44 -70.5t-49 -46.5q-77 -56 -155 -58h-5q-62 0 -105 31zM269 377l-28 -10q-56 -23 -89 -66q-27 -34 -40 -74
q-2 -5 -7 -26q-6 -29 2 -56q7 -22 25 -44q37 -40 94 -40h3q58 2 113 44q127 120 59 225q-31 37 -80 37q-11 0 -23 -3q-22 -3 -29 13zM275 608q-7 9 -4 22t15 21q24 19 44 -4q37 -43 63 -101q5 -11 0 -23.5t-17 -19.5q-7 -4 -17 -4q-16 0 -24 13q-54 88 -60 96z" />
    <glyph glyph-name="oacute" unicode="&#xf3;" horiz-adv-x="477" 
d="M111 31q-48 35 -65 88q-25 103 59 215q31 38 78 68q79 46 182 48q29 0 62 -6q12 -1 18 -11.5t2 -23.5q-2 -6 -14 -18q4 -3 18 -19q32 -51 35 -103.5t-17 -93.5t-44 -70.5t-49 -46.5q-77 -56 -155 -58h-5q-62 0 -105 31zM269 377l-28 -10q-56 -23 -89 -66q-27 -34 -40 -74
q-2 -5 -7 -26q-6 -29 2 -56q7 -22 25 -44q37 -40 94 -40h3q58 2 113 44q127 120 59 225q-31 37 -80 37q-11 0 -23 -3q-22 -3 -29 13zM380 604q-29 -26 -94 -91q-14 -11 -29 -11q-13 3 -16 5q-9 8 -9.5 20.5t8.5 22.5q45 55 98 96q12 9 25 9t20 -8q9 -9 7.5 -21.5
t-10.5 -21.5z" />
    <glyph glyph-name="ocircumflex" unicode="&#xf4;" horiz-adv-x="477" 
d="M111 31q-48 35 -65 88q-25 103 59 215q31 38 78 68q79 46 182 48q29 0 62 -6q12 -1 18 -11.5t2 -23.5q-2 -6 -14 -18q4 -3 18 -19q32 -51 35 -103.5t-17 -93.5t-44 -70.5t-49 -46.5q-77 -56 -155 -58h-5q-62 0 -105 31zM269 377l-28 -10q-56 -23 -89 -66q-27 -34 -40 -74
q-2 -5 -7 -26q-6 -29 2 -56q7 -22 25 -44q37 -40 94 -40h3q58 2 113 44q127 120 59 225q-31 37 -80 37q-11 0 -23 -3q-22 -3 -29 13zM365 512l-42 68l-64 -64q-26 -20 -45 -6q-9 8 -9.5 20.5t8.5 22.5q45 55 98 96q8 6 14 7q5 2 15 2q10 -2 13 -5l7 -6q37 -43 63 -101
q5 -11 0 -23.5t-17 -19.5q-7 -4 -17 -4q-16 0 -24 13z" />
    <glyph glyph-name="otilde" unicode="&#xf5;" horiz-adv-x="477" 
d="M111 31q-48 35 -65 88q-25 103 59 215q31 38 78 68q79 46 182 48q29 0 62 -6q12 -1 18 -11.5t2 -23.5q-2 -6 -14 -18q4 -3 18 -19q32 -51 35 -103.5t-17 -93.5t-44 -70.5t-49 -46.5q-77 -56 -155 -58h-5q-62 0 -105 31zM269 377l-28 -10q-56 -23 -89 -66q-27 -34 -40 -74
q-2 -5 -7 -26q-6 -29 2 -56q7 -22 25 -44q37 -40 94 -40h3q58 2 113 44q127 120 59 225q-31 37 -80 37q-11 0 -23 -3q-22 -3 -29 13zM251 536q-24 -18 -38.5 0t4.5 38q49 44 88 44q26 0 63 -29q17 -15 29 -15q17 0 42 24q18 15 34.5 0t-0.5 -36q-41 -38 -76 -38
q-27 0 -60 27q-23 17 -32 17q-19 0 -54 -32z" />
    <glyph glyph-name="odieresis" unicode="&#xf6;" horiz-adv-x="477" 
d="M111 31q-48 35 -65 88q-25 103 59 215q31 38 78 68q79 46 182 48q29 0 62 -6q12 -1 18 -11.5t2 -23.5q-2 -6 -14 -18q4 -3 18 -19q32 -51 35 -103.5t-17 -93.5t-44 -70.5t-49 -46.5q-77 -56 -155 -58h-5q-62 0 -105 31zM269 377l-28 -10q-56 -23 -89 -66q-27 -34 -40 -74
q-2 -5 -7 -26q-6 -29 2 -56q7 -22 25 -44q37 -40 94 -40h3q58 2 113 44q127 120 59 225q-31 37 -80 37q-11 0 -23 -3q-22 -3 -29 13zM207 566q2 17 14.5 28.5t28.5 11.5q17 0 27.5 -12t9.5 -28q-2 -17 -15 -28.5t-29 -11.5q-17 0 -27.5 12t-8.5 28zM407 566q2 17 14.5 28.5
t28.5 11.5q17 0 27.5 -12t9.5 -28q-2 -17 -15 -28.5t-29 -11.5q-17 0 -27.5 12t-8.5 28z" />
    <glyph glyph-name="divide" unicode="&#xf7;" horiz-adv-x="417" 
d="M452 349q12 0 18.5 -8.5t4.5 -19.5q-2 -12 -11.5 -20t-21.5 -8h-368q-11 0 -18 8t-5 20q2 11 12 19.5t21 8.5h368zM279 406q-17 0 -31 14q-11 16 -8 32q3 18 20 32q14 13 35 13q19 0 29 -13q11 -13 8 -32q-3 -18 -20 -32q-16 -14 -33 -14zM249 234q19 0 28 -13
q13 -13 9 -32q-5 -19 -20 -33q-17 -13 -33 -13t-31 13q-12 16 -8 33q3 18 19 32q16 13 36 13z" />
    <glyph glyph-name="oslash" unicode="&#xf8;" horiz-adv-x="477" 
d="M436 441l2 -2q1 0 3 -2l5 -7q4 -9 1 -21q-2 -6 -14 -18q4 -3 18 -19q32 -51 35 -103.5t-17 -93.5t-44 -70.5t-49 -46.5q-77 -56 -155 -58h-5q-62 0 -105 31q-1 0 -3 2l-15 -17q-10 -16 -27 -16q-8 0 -13 2q-9 5 -11.5 16t4.5 21l26 29q-17 24 -26 51q-25 103 59 215
q31 38 78 68q79 46 182 48q29 0 62 -6q1 0 5 -2h2q1 -1 2 -1zM401 330q-4 5 -14 13l-234 -260q33 -22 73 -22h3q58 2 113 44q127 120 59 225zM241 367q-56 -23 -89 -66q-27 -34 -40 -74q-2 -5 -7 -26q-6 -29 2 -56q5 -16 11 -26l221 246q-12 2 -18 2q-11 0 -23 -3
q-22 -3 -29 13z" />
    <glyph glyph-name="ugrave" unicode="&#xf9;" horiz-adv-x="475" 
d="M351 0q-13 0 -20 9t-5 22q4 21 12 57q-32 -30 -50 -42q-61 -46 -129 -46q-32 0 -63 17q-32 20 -44 67t-10.5 79.5t7.5 63.5q14 83 56 194q5 13 17 20t23 4q11 -2 16.5 -13t1.5 -23q-41 -108 -53 -182q-8 -65 -3 -98.5t15 -45.5q16 -21 47 -21q23 0 45 9q21 6 44 22
q34 25 66 66q30 39 48 82q16 36 23 54q15 52 39 121q4 12 16 19.5t24 5.5q12 -1 17.5 -11.5t1.5 -23.5q-31 -97 -39 -121q-53 -165 -68 -254v-1q-2 -13 -12 -21.5t-23 -8.5zM255 608q-7 9 -4 22t15 21q24 19 44 -4q37 -43 63 -101q5 -11 0 -23.5t-17 -19.5q-7 -4 -17 -4
q-16 0 -24 13q-54 88 -60 96z" />
    <glyph glyph-name="uacute" unicode="&#xfa;" horiz-adv-x="475" 
d="M351 0q-13 0 -20 9t-5 22q4 21 12 57q-32 -30 -50 -42q-61 -46 -129 -46q-32 0 -63 17q-32 20 -44 67t-10.5 79.5t7.5 63.5q14 83 56 194q5 13 17 20t23 4q11 -2 16.5 -13t1.5 -23q-41 -108 -53 -182q-8 -65 -3 -98.5t15 -45.5q16 -21 47 -21q23 0 45 9q21 6 44 22
q34 25 66 66q30 39 48 82q16 36 23 54q15 52 39 121q4 12 16 19.5t24 5.5q12 -1 17.5 -11.5t1.5 -23.5q-31 -97 -39 -121q-53 -165 -68 -254v-1q-2 -13 -12 -21.5t-23 -8.5zM410 604q-29 -26 -94 -91q-14 -11 -29 -11q-13 3 -16 5q-9 8 -9.5 20.5t8.5 22.5q45 55 98 96
q12 9 25 9t20 -8q9 -9 7.5 -21.5t-10.5 -21.5z" />
    <glyph glyph-name="ucircumflex" unicode="&#xfb;" horiz-adv-x="475" 
d="M351 0q-13 0 -20 9t-5 22q4 21 12 57q-32 -30 -50 -42q-61 -46 -129 -46q-32 0 -63 17q-32 20 -44 67t-10.5 79.5t7.5 63.5q14 83 56 194q5 13 17 20t23 4q11 -2 16.5 -13t1.5 -23q-41 -108 -53 -182q-8 -65 -3 -98.5t15 -45.5q16 -21 47 -21q23 0 45 9q21 6 44 22
q34 25 66 66q30 39 48 82q16 36 23 54q15 52 39 121q4 12 16 19.5t24 5.5q12 -1 17.5 -11.5t1.5 -23.5q-31 -97 -39 -121q-53 -165 -68 -254v-1q-2 -13 -12 -21.5t-23 -8.5zM365 512l-42 68l-64 -64q-26 -20 -45 -6q-9 8 -9.5 20.5t8.5 22.5q45 55 98 96q8 6 14 7q5 2 15 2
q10 -2 13 -5l7 -6q37 -43 63 -101q5 -11 0 -23.5t-17 -19.5q-7 -4 -17 -4q-16 0 -24 13z" />
    <glyph glyph-name="udieresis" unicode="&#xfc;" horiz-adv-x="475" 
d="M351 0q-13 0 -20 9t-5 22q4 21 12 57q-32 -30 -50 -42q-61 -46 -129 -46q-32 0 -63 17q-32 20 -44 67t-10.5 79.5t7.5 63.5q14 83 56 194q5 13 17 20t23 4q11 -2 16.5 -13t1.5 -23q-41 -108 -53 -182q-8 -65 -3 -98.5t15 -45.5q16 -21 47 -21q23 0 45 9q21 6 44 22
q34 25 66 66q30 39 48 82q16 36 23 54q15 52 39 121q4 12 16 19.5t24 5.5q12 -1 17.5 -11.5t1.5 -23.5q-31 -97 -39 -121q-53 -165 -68 -254v-1q-2 -13 -12 -21.5t-23 -8.5zM392 566q2 17 14.5 28.5t28.5 11.5q17 0 27.5 -12t9.5 -28q-2 -17 -15 -28.5t-29 -11.5
q-17 0 -27.5 12t-8.5 28zM192 566q2 17 14.5 28.5t28.5 11.5q17 0 27.5 -12t9.5 -28q-2 -17 -15 -28.5t-29 -11.5q-17 0 -27.5 12t-8.5 28z" />
    <glyph glyph-name="yacute" unicode="&#xfd;" 
d="M-92 -248q2 13 11.5 22t22.5 9q119 0 195 27q74 24 124 76q69 71 108 186q-34 -26 -74 -45q-58 -26 -107 -26q-49 -1 -82.5 14.5t-48 38.5t-19.5 53.5t-2.5 54.5t8.5 46q16 60 34 113.5t28 76.5l9 24q5 13 17.5 19.5t23.5 2.5q12 -3 16.5 -13.5t-0.5 -23.5
q-5 -12 -11.5 -28.5t-8.5 -20.5q-25 -74 -40 -124q-7 -28 -10 -51.5t-2 -40.5t5.5 -30.5t10 -21.5t14.5 -14t16 -9t17 -4.5t15.5 -1.5t13.5 1h7q39 3 77 20t56 30.5t44 35.5q9 9 19 25q30 48 67 216l9 30q4 12 15.5 19.5t22.5 5.5q12 -1 18 -11t3 -21q-35 -140 -69 -256
q-38 -119 -79 -198q-30 -55 -71 -101q-46 -48 -97 -78t-107.5 -41t-88 -13.5t-86.5 -2.5q-13 0 -19.5 8.5t-4.5 21.5zM430 604q-29 -26 -94 -91q-14 -11 -29 -11q-13 3 -16 5q-9 8 -9.5 20.5t8.5 22.5q45 55 98 96q12 9 25 9t20 -8q9 -9 7.5 -21.5t-10.5 -21.5z" />
    <glyph glyph-name="thorn" unicode="&#xfe;" horiz-adv-x="529" 
d="M481 300q11 -31 5 -65q-17 -94 -120 -163q-101 -68 -239 -75q-23 -96 -45 -211q-2 -13 -12.5 -21t-23.5 -8h-1q-13 0 -20 9t-4 22q72 357 140 584q51 163 97 268q5 12 17.5 18.5t24.5 2.5q11 -3 15.5 -14t-1.5 -23q-34 -78 -83 -226q42 4 59 4q80 0 128 -27
q51 -27 63 -75zM398 178q21 26 26 57q3 23 -3 38q-5 18 -21 33q-37 35 -121 35q-38 0 -67 -6q-30 -100 -72 -278q89 7 153 40q66 30 105 81z" />
    <glyph glyph-name="ydieresis" unicode="&#xff;" 
d="M-92 -248q2 13 11.5 22t22.5 9q119 0 195 27q74 24 124 76q69 71 108 186q-34 -26 -74 -45q-58 -26 -107 -26q-49 -1 -82.5 14.5t-48 38.5t-19.5 53.5t-2.5 54.5t8.5 46q16 60 34 113.5t28 76.5l9 24q5 13 17.5 19.5t23.5 2.5q12 -3 16.5 -13.5t-0.5 -23.5
q-5 -12 -11.5 -28.5t-8.5 -20.5q-25 -74 -40 -124q-7 -28 -10 -51.5t-2 -40.5t5.5 -30.5t10 -21.5t14.5 -14t16 -9t17 -4.5t15.5 -1.5t13.5 1h7q39 3 77 20t56 30.5t44 35.5q9 9 19 25q30 48 67 216l9 30q4 12 15.5 19.5t22.5 5.5q12 -1 18 -11t3 -21q-35 -140 -69 -256
q-38 -119 -79 -198q-30 -55 -71 -101q-46 -48 -97 -78t-107.5 -41t-88 -13.5t-86.5 -2.5q-13 0 -19.5 8.5t-4.5 21.5zM207 566q2 17 14.5 28.5t28.5 11.5q17 0 27.5 -12t9.5 -28q-2 -17 -15 -28.5t-29 -11.5q-17 0 -27.5 12t-8.5 28zM407 566q2 17 14.5 28.5t28.5 11.5
q17 0 27.5 -12t9.5 -28q-2 -17 -15 -28.5t-29 -11.5q-17 0 -27.5 12t-8.5 28z" />
    <glyph glyph-name="Scaron" unicode="&#x160;" horiz-adv-x="541" 
d="M328 841q-6 10 -3 23t15 20q25 18 42 -3q8 -8 39 -65q68 64 91 77q12 7 24 4.5t17 -12.5q12 -21 -16 -44q-50 -39 -100 -95q-15 -17 -30 -17q-18 0 -24 13q-25 57 -55 99zM161 22q-54 18 -95 48q-26 18 -40 38q-7 10 -5.5 21.5t11.5 19.5q25 16 42 -7q16 -24 75 -52
q69 -30 138 -30q28 0 52 4q47 8 79 37q30 27 39 64q3 15 3 28q0 22 -8 41q-7 19 -26 41q-38 43 -118 78q-54 23 -92 56q-37 34 -51 69q-10 27 -10 49q0 46 33 86q22 25 51 41q64 36 153 36q64 0 137 -21q12 -3 18 -13.5t2 -22.5q-3 -12 -14 -18t-22 -2q-66 18 -121 18
q-53 0 -99 -17q-39 -14 -60 -39q-38 -52 6 -106q32 -36 93 -62q69 -31 111 -67q44 -37 64 -84q12 -30 12 -63q0 -19 -5 -42q-14 -56 -56 -93q-43 -40 -109 -52q-26 -5 -62 -5q-66 0 -126 21z" />
    <glyph glyph-name="scaron" unicode="&#x161;" horiz-adv-x="426" 
d="M43 114q0 1 2 11q3 12 14.5 19.5t24.5 6.5q13 -2 18.5 -12t1.5 -22v-3q0 -18 23 -34q33 -19 80 -19q36 0 63 10q33 14 48 30q14 17 17.5 31t2 22t-14 17t-16.5 10.5t-20 8.5q-106 34 -130 64q-31 33 -23.5 68.5t34.5 65t74.5 47.5t97.5 14q38 0 68 -10t41.5 -19t13.5 -14
q5 -10 0.5 -22.5t-15.5 -19.5q-4 -6 -14.5 -3.5t-16.5 4.5t-16.5 8t-13.5 7q-26 8 -58 8q-31 0 -60 -9q-32 -12 -49.5 -29.5t-16.5 -30.5t7 -22q10 -12 46 -26q8 -4 24 -10t19 -7q35 -14 59 -26q41 -22 48 -55t-7 -59.5t-39 -50.5q-70 -63 -163 -63q-154 10 -154 114z
M258 621q-6 10 -3 23t15 20q25 18 42 -3q8 -8 39 -65q68 64 91 77q12 7 24 4.5t17 -12.5q12 -21 -16 -44q-50 -39 -100 -95q-15 -17 -30 -17q-18 0 -24 13q-25 57 -55 99z" />
    <glyph glyph-name="Ydieresis" unicode="&#x178;" horiz-adv-x="427" 
d="M566 677q9 -8 10 -20t-7 -22q-83 -98 -162 -226q-122 -192 -193 -390q-8 -19 -28 -19q-7 0 -10 1q-12 4 -17 15.5t-1 22.5q46 126 113 254q-55 44 -104 117q-46 70 -75 150q-16 48 -21 86q-2 12 5.5 21.5t19.5 11.5t21.5 -5.5t11.5 -19.5q5 -36 19 -74q15 -44 41 -91
q46 -88 111 -143q33 58 57 94q85 136 167 233q8 10 20.5 11t21.5 -7zM181 766q2 17 14.5 28.5t28.5 11.5q17 0 27.5 -12t9.5 -28q-2 -17 -15 -28.5t-29 -11.5q-17 0 -27.5 12t-8.5 28zM381 766q2 17 14.5 28.5t28.5 11.5q17 0 27.5 -12t9.5 -28q-2 -17 -15 -28.5t-29 -11.5
q-17 0 -27.5 12t-8.5 28z" />
    <glyph glyph-name="Zcaron" unicode="&#x17d;" horiz-adv-x="604" 
d="M653 644q0 -24 -24 -33q-22 -8 -50 -27q-22 -14 -64 -49q-100 -86 -211.5 -214.5t-186.5 -238.5l-7 -10q82 13 167 13q69 0 160 -6.5t133 -18.5q11 -3 15.5 -14t-0.5 -23q-10 -23 -34 -23q-5 0 -7 1q-38 10 -126 16.5t-152 6.5q-111 0 -213 -23q-18 -3 -28 10q-9 14 0 31
q19 36 59 93q33 46 89 117q5 6 30.5 38t45.5 55.5t60 66.5t85 87q70 70 131 116q-8 0 -25.5 0.5t-27.5 0.5q-147 0 -260 -27q-13 -3 -22.5 4t-10.5 19t7.5 23t21.5 14q122 28 275 28q78 0 148 -7q24 -3 22 -26zM328 841q-6 10 -3 23t15 20q25 18 42 -3q8 -8 39 -65
q68 64 91 77q12 7 24 4.5t17 -12.5q12 -21 -16 -44q-50 -39 -100 -95q-15 -17 -30 -17q-18 0 -24 13q-25 57 -55 99z" />
    <glyph glyph-name="zcaron" unicode="&#x17e;" horiz-adv-x="529" 
d="M23 13q-8 18 6 35q103 96 159 140q108 88 222 171l43 32q-57 5 -102 5q-105 0 -180 -23q-12 -3 -22 3t-12 18q-2 13 5.5 23.5t21.5 14.5q81 25 198 25q86 0 184 -14q22 -2 22 -23q2 -20 -18 -32q-10 -6 -65 -44q-72 -53 -88 -65q-107 -79 -193 -150q-47 -39 -62 -53
q71 11 152 11q65 0 146 -9q13 -1 19 -11t2 -23t-15 -20.5t-24 -6.5q-68 8 -139 8q-125 0 -230 -24q-23 -5 -30 12zM278 621q-6 10 -3 23t15 20q25 18 42 -3q8 -8 39 -65q68 64 91 77q12 7 24 4.5t17 -12.5q12 -21 -16 -44q-50 -39 -100 -95q-15 -17 -30 -17q-18 0 -24 13
q-25 57 -55 99z" />
    <glyph glyph-name="quoteleft" unicode="&#x2018;" horiz-adv-x="174" 
d="M154 642q11 -1 22 -12q11 -12 7 -32q-4 -19 -19 -32.5t-34 -13.5q-34 0 -38.5 33t14.5 58q16 30 40 47q8 6 17 5.5t14 -7.5q5 -5 2 -13t-6 -12t-10 -11t-9 -10z" />
    <glyph glyph-name="quoteright" unicode="&#x2019;" horiz-adv-x="174" 
d="M119 608q-13 2 -21 13q-11 11 -7 31q4 19 19 32.5t34 13.5q34 0 38.5 -33t-14.5 -58q-15 -29 -40 -47q-8 -6 -17.5 -5.5t-14.5 7.5q-5 5 -2 13t6 12t10 11t9 10z" />
    <glyph glyph-name="quotedblleft" unicode="&#x201c;" horiz-adv-x="296" 
d="M154 642q11 -1 22 -12q11 -12 7 -32q-4 -19 -19 -32.5t-34 -13.5q-34 0 -38.5 33t14.5 58q16 30 40 47q8 6 17 5.5t14 -7.5q5 -5 2 -13t-6 -12t-10 -11t-9 -10zM276 642q12 -1 21 -12q11 -13 8 -32q-4 -19 -19 -32.5t-34 -13.5q-35 0 -39.5 33t14.5 58q19 32 41 47
q8 6 16.5 5.5t13.5 -7.5q5 -5 2.5 -13t-6 -12.5t-10 -11t-8.5 -9.5z" />
    <glyph glyph-name="quotedblright" unicode="&#x201d;" horiz-adv-x="296" 
d="M240 608q-12 1 -20 13q-12 12 -8 31t19 32.5t34 13.5q35 0 39.5 -33t-14.5 -58q-18 -30 -41 -47q-8 -6 -17 -5.5t-14 7.5q-5 5 -2.5 13t6 12.5t10 11t8.5 9.5zM119 608q-13 2 -21 13q-11 11 -7 31q4 19 19 32.5t34 13.5q34 0 38.5 -33t-14.5 -58q-15 -29 -40 -47
q-8 -6 -17.5 -5.5t-14.5 7.5q-5 5 -2 13t6 12t10 11t9 10z" />
    <glyph glyph-name="Euro" unicode="&#x20ac;" horiz-adv-x="581" 
d="M124 280q10 46 25 93h-49q-8 0 -11.5 5.5t-1.5 12.5q5 18 24 18h50l3 9q18 46 48 95q46 72 114 110q46 26 100 34q22 2 30 2h1q59 0 95 -30q33 -26 48 -78l-1 -1q3 -6 1 -13q-5 -19 -24 -27q-7 -4 -15 -4q-17 0 -22 16q-9 35 -35 56q-21 20 -64 20q-15 0 -23 -1
q-38 -4 -71 -23q-32 -19 -59 -49q-36 -42 -66 -116h258q18 0 11 -18q-4 -18 -22 -18h-260q-16 -54 -25 -93h259q17 0 13 -18q-5 -18 -22 -18h-257l-2 -11q-10 -52 -3 -89q3 -28 14 -45q10 -17 27 -26q23 -11 56 -13h9q49 0 81 15q31 15 60 48q11 14 31 14q7 0 13 -3
q12 -9 9 -26q-6 -13 -9 -16q-44 -49 -92 -71q-50 -21 -108 -21h-12q-45 0 -79 19q-36 19 -51 57q-23 59 -6 159l2 9h-51q-8 0 -12 5.5t-2 12.5q4 18 23 18h50z" />
    <glyph glyph-name="florin" horiz-adv-x="556" 
d="M27 -149l18 68q46 -10 72 -10q27 0 40 13t21 53l85 455h-96l11 61h96l12 57q11 54 21 73q32 58 115 58q37 0 103 -17l-17 -67q-52 11 -74 11q-28 0 -40.5 -13t-21.5 -57l-10 -45h98l-11 -61h-99l-91 -477q-12 -63 -40.5 -88t-83.5 -25q-42 0 -108 11z" />
    <glyph glyph-name="quotedblbase" horiz-adv-x="343" 
d="M88 0h-46l17 102h75l-14 -81q-10 -64 -31 -94q-29 -40 -77 -59l5 34q54 22 71 98zM240 0h-46l17 102h74l-14 -81q-10 -64 -31 -94q-29 -40 -76 -59l4 34q54 22 72 98z" />
    <glyph glyph-name="ellipsis" horiz-adv-x="877" 
d="M135 0h-100l17 100h100zM468 0h-100l17 100h100zM802 0h-101l17 100h101z" />
    <glyph glyph-name="dagger" horiz-adv-x="539" 
d="M250 -148h-58l105 593h-184l8 45h184l33 188h58l-33 -188h187l-8 -45h-187z" />
    <glyph glyph-name="daggerdbl" horiz-adv-x="561" 
d="M264 -139h-58l27 151h-196l8 48h196l73 414h-196l9 49h196l27 154h58l-27 -154h197l-9 -49h-197l-73 -414h197l-8 -48h-197z" />
    <glyph glyph-name="circumflex" horiz-adv-x="419" 
d="M360 541l-56 103l-93 -103h-81l130 137h93l86 -137h-79z" />
    <glyph glyph-name="perthousand" horiz-adv-x="1075" 
d="M238 0h-55l418 706h55zM127 527q15 88 60 130.5t111 42.5q65 0 95 -43t15 -128q-32 -181 -171 -181q-66 0 -95.5 44.5t-14.5 134.5zM188 523q-15 -82 3 -110q18 -27 55 -27q34 0 55 25q30 30 45 113q14 82 -5 114q-15 25 -49 25q-37 0 -58 -25q-33 -34 -46 -115zM421 178
q15 88 60 131t111 43q65 0 95 -43t15 -129q-32 -180 -171 -180q-66 0 -96.5 44t-13.5 134zM481 174q-14 -77 1 -107t57 -30q35 0 56 25q32 32 45 113q15 81 -6 113q-14 26 -48 26q-37 0 -59 -25q-31 -32 -46 -115zM751 178q15 88 59.5 131t110.5 43t95.5 -43t14.5 -129
q-31 -180 -171 -180q-65 0 -95.5 44t-13.5 134zM811 174q-14 -82 2 -109q16 -28 55 -28q35 0 56 25q32 32 45 113q15 82 -7 113q-12 26 -47 26q-36 0 -58 -25q-31 -32 -46 -115z" />
    <glyph glyph-name="guilsinglleft" horiz-adv-x="316" 
d="M325 480l-168 -223l90 -222h-52l-115 222l193 223h52z" />
    <glyph glyph-name="OE" horiz-adv-x="1012" 
d="M588 44h358l-10 -45h-420l18 99q-86 -110 -214 -110q-146 0 -203 107q-49 93 -23 245q27 148 114 249t236 101q130 0 176 -103l16 92h405l-9 -45h-343l-45 -263h318l-9 -50h-318zM436 646q-56 0 -112 -34q-109 -64 -157 -279q-23 -155 26 -229q48 -73 135 -73t160 73
q75 75 103 241q29 156 -21 228q-49 73 -134 73z" />
    <glyph glyph-name="bullet" horiz-adv-x="308" 
d="M96 351q8 41 42 69.5t75 28.5q42 0 65.5 -28.5t15.5 -69.5q-8 -44 -41 -71q-34 -28 -75 -28t-65 28.5t-17 70.5z" />
    <glyph glyph-name="endash" horiz-adv-x="666" 
d="M630 224h-556l9 50h556z" />
    <glyph glyph-name="emdash" horiz-adv-x="1110" 
d="M1074 224h-1000l9 50h1000z" />
    <glyph glyph-name="tilde" horiz-adv-x="437" 
d="M199 565h-65q9 51 42 81q34 31 78 31q30 0 77 -27q28 -14 44 -14t25.5 9t17.5 33h63q-11 -54 -42 -82.5t-74 -28.5q-29 0 -76 27q-29 18 -45 18t-28 -12q-12 -11 -17 -35z" />
    <glyph glyph-name="trademark" horiz-adv-x="759" 
d="M248 318h-40l57 327h-117l6 33h274l-6 -33h-117zM461 318h-36l63 360h69l40 -288l139 288h67l-63 -360h-35l56 322l-159 -322h-35l-49 327z" />
    <glyph glyph-name="guilsinglright" horiz-adv-x="301" 
d="M41 35l168 224l-90 221h43l110 -218l-188 -227h-43z" />
    <glyph glyph-name="oe" horiz-adv-x="980" 
d="M492 97q-95 -97 -211 -97q-110 0 -165 70q-33 42 -38 105.5t11.5 124.5t47.5 112q40 64 103 97t137 33q66 0 112 -27.5t64 -71.5q83 99 206 99q115 0 161 -74q52 -86 31 -200l-402 -3q-16 -97 25 -155.5t110 -58.5q50 0 102 35t77 88l63 -6q-35 -81 -100 -124.5
t-152 -43.5q-65 0 -112.5 25.5t-69.5 71.5zM165 120q37 -67 123 -67q83 0 137.5 67t70.5 153q16 88 -17.5 152.5t-113.5 64.5q-52 -2 -97 -30.5t-71.5 -72t-41.5 -92.5t-12 -96t22 -79zM559 312h328q7 80 -30 127t-102 47q-66 0 -121 -48.5t-75 -125.5z" />
    <glyph glyph-name="cent" horiz-adv-x="563" 
d="M441 473l-195 -419q13 -4 29 -4q52 0 113.5 48t80.5 109l53 -11q-28 -75 -101.5 -134.5t-151.5 -59.5q-27 0 -49 7l-78 -168l-43 16l76 169q-43 30 -75 96.5t-17 150.5q21 122 122.5 200.5t209.5 64.5l72 155l43 -16l-70 -150q44 -20 64 -55t22 -90l-62 -7q-2 27 -15 55
t-28 43zM198 78l196 417q-11 1 -25 1q-65 2 -139.5 -66.5t-87.5 -158.5q-10 -59 8.5 -113.5t47.5 -79.5z" />
    <glyph glyph-name="currency" horiz-adv-x="598" 
d="M506 102l-58 66q-67 -48 -145 -48q-81 0 -132 51l-85 -69l-27 35l84 69q-34 61 -22 134q14 75 67 131l-58 70l41 35l58 -68q71 52 151 52t130 -50l79 66l29 -35l-80 -66q37 -57 23 -135q-14 -79 -72 -137l58 -66zM173 338q-12 -68 29 -117.5t109 -49.5q69 0 127 49.5
t70 117.5q12 69 -28.5 118.5t-109.5 49.5q-68 0 -126.5 -49.5t-70.5 -118.5z" />
    <glyph glyph-name="brokenbar" horiz-adv-x="165" 
d="M154 678h55l-64 -365h-55zM62 155h55l-65 -365h-54z" />
    <glyph glyph-name="section" horiz-adv-x="497" 
d="M51 -1l56 9q2 -56 34 -89t79 -33q44 0 87.5 31t48.5 63q5 30 -13 58t-38 43t-55.5 35.5t-38.5 22.5q-7 5 -19 13.5t-19 13.5t-19 13.5t-17.5 14t-15.5 15t-13.5 16.5t-10.5 18t-7 19.5t-3 22t2 24.5q8 45 36 79t74 48q-47 55 -37 109q11 62 67 100t118 38q51 0 87 -25.5
t50.5 -57.5t18.5 -69l-54 -9q0 52 -30.5 86.5t-71.5 34.5q-54 0 -88.5 -25.5t-37 -59.5t17.5 -70q3 -4 40 -37t81 -71.5t54 -47.5q59 -63 44.5 -120t-92.5 -104q60 -54 48 -123q-8 -60 -68 -103.5t-132 -40.5q-52 0 -89.5 26.5t-54 60.5t-19.5 71zM331 136q49 25 68 60
t-2 75q-15 26 -86 74q-59 42 -79 61q-185 -88 8 -216q14 -9 46 -25.5t45 -28.5z" />
    <glyph glyph-name="dieresis" horiz-adv-x="374" 
d="M220 589h-82l16 90h82zM402 589h-82l16 90h82z" />
    <glyph glyph-name="copyright" horiz-adv-x="747" 
d="M473 678q79 0 149 -41q70 -40 99 -118q29 -77 14 -160q-15 -82 -70 -158t-138 -118t-166 -42t-151 42q-68 43 -98 118q-29 77 -14 158q15 82 71 160q58 78 140 118q84 41 164 41zM468 652q-73 0 -151 -38q-74 -36 -128 -109q-51 -69 -65 -146q-13 -73 13 -145
q25 -69 89 -109q65 -38 139 -38t152 38q78 40 128 109q50 70 64 145q13 75 -14 146q-26 71 -91 109t-136 38zM510 308l49 -16q-21 -52 -68 -83.5t-105 -31.5q-76 0 -113.5 48.5t-22.5 132.5q13 84 68.5 132t133.5 48q55 0 88 -26.5t39 -72.5l-52 -13q-17 65 -85 65
q-50 0 -86.5 -35t-48.5 -99q-11 -63 12 -96.5t72 -33.5q39 0 71 21.5t48 59.5z" />
    <glyph glyph-name="ordfeminine" horiz-adv-x="438" 
d="M344 367q-70 -53 -134 -53q-56 0 -83 29.5t-18 77.5q12 71 87 94q20 7 50 11l74 10l49 10q5 36 1 46q-9 29 -65 29q-73 0 -92 -61l-64 16q15 46 58 74t109 28q80 0 108 -30q27 -30 17 -88l-20 -117l-6 -30q-11 -67 4 -90h-73q-5 21 -2 44zM377 501q-21 -5 -118 -22
q-53 -6 -73 -23q-18 -15 -23 -39q-4 -25 13.5 -40.5t53.5 -15.5q43 0 79.5 22.5t52.5 55.5q6 13 15 62z" />
    <glyph glyph-name="guillemotleft" horiz-adv-x="499" 
d="M317 480l-166 -222l87 -223h-41l-117 223l195 222h42zM508 480l-168 -222l90 -223h-44l-114 223l192 222h44z" />
    <glyph glyph-name="logicalnot" horiz-adv-x="582" 
d="M595 503l-52 -296h-60l42 240h-412l10 56h472z" />
    <glyph glyph-name="registered" horiz-adv-x="751" 
d="M475 680q81 0 151 -42q70 -40 99 -118t14 -161t-71 -160q-55 -76 -139 -118t-167 -42q-84 0 -153 42q-69 43 -97 118q-29 78 -14 160q15 85 72 161q58 78 140 118q84 42 165 42zM471 654q-75 0 -152 -39q-77 -38 -130 -109q-51 -69 -65 -147q-14 -77 13 -146t90 -108.5
t140 -39.5t153 39q78 40 128 109q52 72 65 146q13 76 -14 147q-26 72 -90 109q-65 39 -138 39zM303 182h-46l60 345h109q62 0 86 -10q26 -9 38 -32.5t7 -50.5q-7 -39 -39 -66.5t-76 -31.5q17 -8 26 -18q14 -17 38 -69l31 -67h-68l-22 54q-22 64 -44 81q-12 12 -41 12h-33z
M355 481l-18 -105h67q85 0 93 53q3 16 -4 27q-6 14 -21 19.5t-54 5.5h-63z" />
    <glyph glyph-name="degree" horiz-adv-x="381" 
d="M130 543q11 56 57 95q46 40 103 40t88 -40q33 -40 23 -95q-11 -55 -57 -96q-46 -40 -102 -40t-89 39q-33 41 -23 97zM176 543q-6 -39 15 -65t59 -26t69 26.5t37 64.5q7 38 -14.5 64t-59.5 26t-68.5 -26t-37.5 -64z" />
    <glyph glyph-name="plusminus" horiz-adv-x="583" 
d="M325 127h-56l36 207h-195l10 55h195l36 205h56l-36 -205h195l-10 -55h-195zM516 51l-8 -51h-473l8 51h473z" />
    <glyph glyph-name="twosuperior" horiz-adv-x="404" 
d="M383 308h-294q7 27 33 56q38 41 113 89q62 40 94 66q29 27 32 47q5 25 -14 45.5t-52 20.5t-61.5 -17.5t-43.5 -49.5l-55 4q24 52 70.5 79.5t98.5 26.5q67 -1 92 -32t19 -71t-37.5 -73t-68 -52t-81 -46.5t-66.5 -53.5h228z" />
    <glyph glyph-name="threesuperior" horiz-adv-x="383" 
d="M107 414l56 4q8 -38 27 -51q18 -15 48 -15q33 0 60 22t32 50q5 27 -12 46t-56 19q-9 0 -16 -1q-6 -1 -12 -1l15 36q37 0 69.5 23.5t33.5 45.5q1 28 -20 41t-52 13q-47 0 -81 -57l-61 -3q29 52 63 72.5t93 20.5q66 0 90.5 -25t17.5 -68q-12 -60 -82 -78q74 -21 61 -92
q-8 -46 -50 -78t-100 -33q-56 -1 -89 28.5t-35 80.5z" />
    <glyph glyph-name="mu" horiz-adv-x="509" 
d="M469 519h56l-91 -519h-49l10 62q-52 -40 -85 -55q-30 -14 -76 -16q-37 1 -65 13.5t-68 47.5l-45 -251h-56l126 718h57l-39 -220q-21 -120 -15 -156q8 -36 37 -67q31 -30 74 -29q50 6 84 28q36 23 60 62q25 39 46 160z" />
    <glyph glyph-name="paragraph" horiz-adv-x="597" 
d="M241 -162h-53l86 490q-88 -16 -128 33q-39 49 -25 129q15 88 79 138.5t166 50.5h275l-10 -58h-65l-138 -783h-56l138 783h-131z" />
    <glyph glyph-name="periodcentered" horiz-adv-x="210" 
d="M187 300h-100l18 100h100z" />
    <glyph glyph-name="cedilla" horiz-adv-x="310" 
d="M78 -75l41 86h55l-25 -52q36 -9 53 -28t13 -44q-6 -36 -46 -62.5t-103 -26.5q-38 0 -66 6l8 45q21 -4 41 -4q53 1 80 19q17 11 20 28q4 11 -2.5 20t-23 13.5t-45.5 -0.5z" />
    <glyph glyph-name="onesuperior" horiz-adv-x="260" 
d="M239 310h-40l53 300q-56 -38 -120 -55l6 30q33 11 74 36q40 24 70 56h22z" />
    <glyph glyph-name="ordmasculine" horiz-adv-x="381" 
d="M130 543q11 56 57 95q46 40 103 40t88 -40q33 -40 23 -95q-11 -55 -57 -96q-46 -40 -102 -40t-89 39q-33 41 -23 97zM171 543q-7 -40 15.5 -68t62.5 -28t72 28t39 68t-15 67.5t-62 27.5t-72.5 -27.5t-39.5 -67.5z" />
    <glyph glyph-name="guillemotright" horiz-adv-x="499" 
d="M398 258l-88 222h42l117 -222l-195 -223h-41zM209 258l-90 222h44l114 -222l-192 -223h-44z" />
    <glyph glyph-name="quotesinglbase" horiz-adv-x="192" 
d="M88 0h-46l17 102h75l-14 -81q-10 -64 -31 -94q-29 -40 -77 -59l5 34q54 22 71 98z" />
    <glyph glyph-name="acute" horiz-adv-x="271" 
d="M183 542h-53l89 137h96z" />
    <glyph glyph-name="macron" horiz-adv-x="0" 
 />
  </font>
</defs>
</svg>
